<svg id="my-svg" width="100%" xmlns="http://www.w3.org/2000/svg" xmlns:xlink="http://www.w3.org/1999/xlink" class="flowchart" style="max-width: 2367.17px; background-color: transparent;" viewBox="0 0 2367.16796875 1693.239013671875" role="graphics-document document" aria-roledescription="flowchart-v2"><style>#my-svg{font-size:14px;fill:#ccc;}@keyframes edge-animation-frame{from{stroke-dashoffset:0;}}@keyframes dash{to{stroke-dashoffset:0;}}#my-svg .edge-animation-slow{stroke-dasharray:9,5!important;stroke-dashoffset:900;animation:dash 50s linear infinite;stroke-linecap:round;}#my-svg .edge-animation-fast{stroke-dasharray:9,5!important;stroke-dashoffset:900;animation:dash 20s linear infinite;stroke-linecap:round;}#my-svg .error-icon{fill:#a44141;}#my-svg .error-text{fill:#ddd;stroke:#ddd;}#my-svg .edge-thickness-normal{stroke-width:1px;}#my-svg .edge-thickness-thick{stroke-width:3.5px;}#my-svg .edge-pattern-solid{stroke-dasharray:0;}#my-svg .edge-thickness-invisible{stroke-width:0;fill:none;}#my-svg .edge-pattern-dashed{stroke-dasharray:3;}#my-svg .edge-pattern-dotted{stroke-dasharray:2;}#my-svg .marker{fill:#5E6873;stroke:#5E6873;}#my-svg .marker.cross{stroke:#5E6873;}#my-svg svg{font-size:14px;}#my-svg p{margin:0;}#my-svg .label{color:#ccc;}#my-svg .cluster-label text{fill:#98A2AC;}#my-svg .cluster-label span{color:#98A2AC;}#my-svg .cluster-label span p{background-color:transparent;}#my-svg .label text,#my-svg span{fill:#ccc;color:#ccc;}#my-svg .node rect,#my-svg .node circle,#my-svg .node ellipse,#my-svg .node polygon,#my-svg .node path{fill:#1f2020;stroke:#ccc;stroke-width:1px;}#my-svg .rough-node .label text,#my-svg .node .label text,#my-svg .image-shape .label,#my-svg .icon-shape .label{text-anchor:middle;}#my-svg .node .katex path{fill:#000;stroke:#000;stroke-width:1px;}#my-svg .rough-node .label,#my-svg .node .label,#my-svg .image-shape .label,#my-svg .icon-shape .label{text-align:center;}#my-svg .node.clickable{cursor:pointer;}#my-svg .root .anchor path{fill:#5E6873!important;stroke-width:0;stroke:#5E6873;}#my-svg .arrowheadPath{fill:lightgrey;}#my-svg .edgePath .path{stroke:#5E6873;stroke-width:1px;}#my-svg .flowchart-link{stroke:#5E6873;fill:none;}#my-svg .edgeLabel{background-color:hsl(0, 0%, 34.4117647059%);text-align:center;}#my-svg .edgeLabel p{background-color:hsl(0, 0%, 34.4117647059%);}#my-svg .edgeLabel rect{opacity:0.5;background-color:hsl(0, 0%, 34.4117647059%);fill:hsl(0, 0%, 34.4117647059%);}#my-svg .labelBkg{background-color:rgba(87.75, 87.75, 87.75, 0.5);}#my-svg .cluster rect{fill:#0B0D10;stroke:#2A3138;stroke-width:1px;}#my-svg .cluster text{fill:#98A2AC;}#my-svg .cluster span{color:#98A2AC;}#my-svg div.mermaidTooltip{position:absolute;text-align:center;max-width:200px;padding:2px;font-size:12px;background:hsl(20, 1.5873015873%, 12.3529411765%);border:1px solid rgba(255, 255, 255, 0.25);border-radius:2px;pointer-events:none;z-index:100;}#my-svg .flowchartTitleText{text-anchor:middle;font-size:18px;fill:#ccc;}#my-svg rect.text{fill:none;stroke-width:0;}#my-svg .icon-shape,#my-svg .image-shape{background-color:hsl(0, 0%, 34.4117647059%);text-align:center;}#my-svg .icon-shape p,#my-svg .image-shape p{background-color:hsl(0, 0%, 34.4117647059%);padding:2px;}#my-svg .icon-shape .label rect,#my-svg .image-shape .label rect{opacity:0.5;background-color:hsl(0, 0%, 34.4117647059%);fill:hsl(0, 0%, 34.4117647059%);}#my-svg .label-icon{display:inline-block;height:1em;overflow:visible;vertical-align:-0.125em;}#my-svg .node .label-icon path{fill:currentColor;stroke:revert;stroke-width:revert;}#my-svg .node .neo-node{stroke:#ccc;}#my-svg [data-look="neo"].node rect,#my-svg [data-look="neo"].cluster rect,#my-svg [data-look="neo"].node polygon{stroke:url(#my-svg-gradient);filter:drop-shadow( 1px 2px 2px rgba(185,185,185,1));}#my-svg [data-look="neo"].swimlane.cluster rect{filter:none;}#my-svg [data-look="neo"].node path{stroke:url(#my-svg-gradient);stroke-width:1px;}#my-svg [data-look="neo"].node .outer-path{filter:drop-shadow( 1px 2px 2px rgba(185,185,185,1));}#my-svg [data-look="neo"].node .neo-line path{stroke:#ccc;filter:none;}#my-svg [data-look="neo"].node circle{stroke:url(#my-svg-gradient);filter:drop-shadow( 1px 2px 2px rgba(185,185,185,1));}#my-svg [data-look="neo"].node circle .state-start{fill:#000000;}#my-svg [data-look="neo"].icon-shape .icon{fill:url(#my-svg-gradient);filter:drop-shadow( 1px 2px 2px rgba(185,185,185,1));}#my-svg [data-look="neo"].icon-shape .icon-neo path{stroke:url(#my-svg-gradient);filter:drop-shadow( 1px 2px 2px rgba(185,185,185,1));}#my-svg :root{--mermaid-font-family:"trebuchet ms",verdana,arial,sans-serif;}#my-svg .capture&gt;*{fill:rgb(26, 20, 16)!important;stroke:rgb(245, 158, 11)!important;stroke-width:2px!important;color:rgb(230, 233, 236)!important;}#my-svg .capture span{fill:rgb(26, 20, 16)!important;stroke:rgb(245, 158, 11)!important;stroke-width:2px!important;color:rgb(230, 233, 236)!important;}#my-svg .capture tspan{fill:rgb(230, 233, 236)!important;}#my-svg .vision&gt;*{fill:rgb(14, 22, 32)!important;stroke:rgb(59, 130, 246)!important;stroke-width:2px!important;color:rgb(230, 233, 236)!important;}#my-svg .vision span{fill:rgb(14, 22, 32)!important;stroke:rgb(59, 130, 246)!important;stroke-width:2px!important;color:rgb(230, 233, 236)!important;}#my-svg .vision tspan{fill:rgb(230, 233, 236)!important;}#my-svg .safety&gt;*{fill:rgb(26, 16, 18)!important;stroke:rgb(239, 68, 68)!important;stroke-width:2px!important;color:rgb(230, 233, 236)!important;}#my-svg .safety span{fill:rgb(26, 16, 18)!important;stroke:rgb(239, 68, 68)!important;stroke-width:2px!important;color:rgb(230, 233, 236)!important;}#my-svg .safety tspan{fill:rgb(230, 233, 236)!important;}#my-svg .infra&gt;*{fill:rgb(14, 16, 19)!important;stroke:rgb(42, 49, 56)!important;stroke-width:1.5px!important;color:rgb(230, 233, 236)!important;}#my-svg .infra span{fill:rgb(14, 16, 19)!important;stroke:rgb(42, 49, 56)!important;stroke-width:1.5px!important;color:rgb(230, 233, 236)!important;}#my-svg .infra tspan{fill:rgb(230, 233, 236)!important;}#my-svg .store&gt;*{fill:rgb(13, 26, 22)!important;stroke:rgb(16, 185, 129)!important;stroke-width:2px!important;color:rgb(230, 233, 236)!important;}#my-svg .store span{fill:rgb(13, 26, 22)!important;stroke:rgb(16, 185, 129)!important;stroke-width:2px!important;color:rgb(230, 233, 236)!important;}#my-svg .store tspan{fill:rgb(230, 233, 236)!important;}#my-svg .client&gt;*{fill:rgb(20, 16, 25)!important;stroke:rgb(139, 92, 246)!important;stroke-width:2px!important;color:rgb(230, 233, 236)!important;}#my-svg .client span{fill:rgb(20, 16, 25)!important;stroke:rgb(139, 92, 246)!important;stroke-width:2px!important;color:rgb(230, 233, 236)!important;}#my-svg .client tspan{fill:rgb(230, 233, 236)!important;}</style><g><marker id="my-svg_flowchart-v2-pointEnd" class="marker flowchart-v2" viewBox="0 0 10 10" refX="5" refY="5" markerUnits="userSpaceOnUse" markerWidth="8" markerHeight="8" orient="auto"><path d="M 0 0 L 10 5 L 0 10 z" class="arrowMarkerPath" style="stroke-width: 1; stroke-dasharray: 1, 0;"/></marker><marker id="my-svg_flowchart-v2-pointStart" class="marker flowchart-v2" viewBox="0 0 10 10" refX="4.5" refY="5" markerUnits="userSpaceOnUse" markerWidth="8" markerHeight="8" orient="auto"><path d="M 0 5 L 10 10 L 10 0 z" class="arrowMarkerPath" style="stroke-width: 1; stroke-dasharray: 1, 0;"/></marker><marker id="my-svg_flowchart-v2-pointEnd-margin" class="marker flowchart-v2" viewBox="0 0 11.5 14" refX="11.5" refY="7" markerUnits="userSpaceOnUse" markerWidth="10.5" markerHeight="14" orient="auto"><path d="M 0 0 L 11.5 7 L 0 14 z" class="arrowMarkerPath" style="stroke-width: 0; stroke-dasharray: 1, 0;"/></marker><marker id="my-svg_flowchart-v2-pointStart-margin" class="marker flowchart-v2" viewBox="0 0 11.5 14" refX="1" refY="7" markerUnits="userSpaceOnUse" markerWidth="11.5" markerHeight="14" orient="auto"><polygon points="0,7 11.5,14 11.5,0" class="arrowMarkerPath" style="stroke-width: 0; stroke-dasharray: 1, 0;"/></marker><marker id="my-svg_flowchart-v2-circleEnd" class="marker flowchart-v2" viewBox="0 0 10 10" refX="11" refY="5" markerUnits="userSpaceOnUse" markerWidth="11" markerHeight="11" orient="auto"><circle cx="5" cy="5" r="5" class="arrowMarkerPath" style="stroke-width: 1; stroke-dasharray: 1, 0;"/></marker><marker id="my-svg_flowchart-v2-circleStart" class="marker flowchart-v2" viewBox="0 0 10 10" refX="-1" refY="5" markerUnits="userSpaceOnUse" markerWidth="11" markerHeight="11" orient="auto"><circle cx="5" cy="5" r="5" class="arrowMarkerPath" style="stroke-width: 1; stroke-dasharray: 1, 0;"/></marker><marker id="my-svg_flowchart-v2-circleEnd-margin" class="marker flowchart-v2" viewBox="0 0 10 10" refY="5" refX="12.25" markerUnits="userSpaceOnUse" markerWidth="14" markerHeight="14" orient="auto"><circle cx="5" cy="5" r="5" class="arrowMarkerPath" style="stroke-width: 0; stroke-dasharray: 1, 0;"/></marker><marker id="my-svg_flowchart-v2-circleStart-margin" class="marker flowchart-v2" viewBox="0 0 10 10" refX="-2" refY="5" markerUnits="userSpaceOnUse" markerWidth="14" markerHeight="14" orient="auto"><circle cx="5" cy="5" r="5" class="arrowMarkerPath" style="stroke-width: 0; stroke-dasharray: 1, 0;"/></marker><marker id="my-svg_flowchart-v2-crossEnd" class="marker cross flowchart-v2" viewBox="0 0 11 11" refX="12" refY="5.2" markerUnits="userSpaceOnUse" markerWidth="11" markerHeight="11" orient="auto"><path d="M 1,1 l 9,9 M 10,1 l -9,9" class="arrowMarkerPath" style="stroke-width: 2; stroke-dasharray: 1, 0;"/></marker><marker id="my-svg_flowchart-v2-crossStart" class="marker cross flowchart-v2" viewBox="0 0 11 11" refX="-1" refY="5.2" markerUnits="userSpaceOnUse" markerWidth="11" markerHeight="11" orient="auto"><path d="M 1,1 l 9,9 M 10,1 l -9,9" class="arrowMarkerPath" style="stroke-width: 2; stroke-dasharray: 1, 0;"/></marker><marker id="my-svg_flowchart-v2-crossEnd-margin" class="marker cross flowchart-v2" viewBox="0 0 15 15" refX="17.7" refY="7.5" markerUnits="userSpaceOnUse" markerWidth="12" markerHeight="12" orient="auto"><path d="M 1,1 L 14,14 M 1,14 L 14,1" class="arrowMarkerPath" style="stroke-width: 2.5;"/></marker><marker id="my-svg_flowchart-v2-crossStart-margin" class="marker cross flowchart-v2" viewBox="0 0 15 15" refX="-3.5" refY="7.5" markerUnits="userSpaceOnUse" markerWidth="12" markerHeight="12" orient="auto"><path d="M 1,1 L 14,14 M 1,14 L 14,1" class="arrowMarkerPath" style="stroke-width: 2.5; stroke-dasharray: 1, 0;"/></marker><g class="root"><g class="clusters"><g class="cluster" id="my-svg-WEB" data-look="classic"><rect style="" x="883.947265625" y="1182" width="410.32421875" height="396.2389678955078"/><g class="cluster-label" transform="translate(1028.125, 1182)"><foreignObject width="121.96875" height="21"><div xmlns="http://www.w3.org/1999/xhtml" style="display: table-cell; white-space: nowrap; line-height: 1.5;"><span class="nodeLabel"><p>Frontend Container</p></span></div></foreignObject></g></g><g class="cluster" id="my-svg-DATA" data-look="classic"><rect style="" x="1314.271484375" y="1182" width="193.328125" height="207.2389678955078"/><g class="cluster-label" transform="translate(1349.591796875, 1182)"><foreignObject width="122.6875" height="21"><div xmlns="http://www.w3.org/1999/xhtml" style="display: table-cell; white-space: nowrap; line-height: 1.5;"><span class="nodeLabel"><p>Database Container</p></span></div></foreignObject></g></g><g class="cluster" id="my-svg-EDGE" data-look="classic"><rect style="" x="1034.248046875" y="8" width="298.671875" height="143"/><g class="cluster-label" transform="translate(1141.583984375, 8)"><foreignObject width="84" height="21"><div xmlns="http://www.w3.org/1999/xhtml" style="display: table-cell; white-space: nowrap; line-height: 1.5;"><span class="nodeLabel"><p>Capture Edge</p></span></div></foreignObject></g></g></g><g class="edgePaths"><path d="M1065.807,1332.119L1059.72,1341.639C1053.633,1351.159,1041.458,1370.199,1035.371,1385.636C1029.283,1401.072,1029.283,1412.906,1029.283,1424.072C1029.283,1435.239,1029.283,1445.739,1029.283,1450.989L1029.283,1456.239" id="my-svg-L_NGINX_REACT_0" class="edge-thickness-normal edge-pattern-solid edge-thickness-normal edge-pattern-solid flowchart-link" style=";" data-edge="true" data-et="edge" data-id="L_NGINX_REACT_0" data-points="W3sieCI6MTA2NS44MDczMzg0ODM3MDYyLCJ5IjoxMzMyLjExOTQ4Mzk0Nzc1NH0seyJ4IjoxMDI5LjI4MzIwMzEyNSwieSI6MTM4OS4yMzg5Njc4OTU1MDc4fSx7IngiOjEwMjkuMjgzMjAzMTI1LCJ5IjoxNDI0LjczODk2Nzg5NTUwNzh9LHsieCI6MTAyOS4yODMyMDMxMjUsInkiOjE0NjAuMjM4OTY3ODk1NTA3OH1d" data-look="classic" marker-end="url(#my-svg_flowchart-v2-pointEnd)"/><path d="M1029.283,1553.239L1029.283,1557.406C1029.283,1561.572,1029.283,1569.906,1029.283,1579.989C1029.283,1590.072,1029.283,1601.906,1036.176,1613.403C1043.069,1624.9,1056.854,1636.061,1063.747,1641.641L1070.64,1647.222" id="my-svg-L_REACT_BROWSER_0" class="edge-thickness-normal edge-pattern-solid edge-thickness-normal edge-pattern-solid flowchart-link" style=";" data-edge="true" data-et="edge" data-id="L_REACT_BROWSER_0" data-points="W3sieCI6MTAyOS4yODMyMDMxMjUsInkiOjE1NTMuMjM4OTY3ODk1NTA3OH0seyJ4IjoxMDI5LjI4MzIwMzEyNSwieSI6MTU3OC4yMzg5Njc4OTU1MDc4fSx7IngiOjEwMjkuMjgzMjAzMTI1LCJ5IjoxNjEzLjczODk2Nzg5NTUwNzh9LHsieCI6MTA3My43NDg2Njc0OTQxNTg4LCJ5IjoxNjQ5LjczODk2Nzg5NTUwNzh9XQ==" data-look="classic" marker-end="url(#my-svg_flowchart-v2-pointEnd)"/><path d="M1150.087,1334.798L1160.151,1343.871C1170.215,1352.945,1190.343,1371.092,1200.407,1386.082C1210.471,1401.072,1210.471,1412.906,1210.471,1432.489C1210.471,1452.072,1210.471,1479.406,1210.471,1504.989C1210.471,1530.572,1210.471,1554.406,1210.471,1572.239C1210.471,1590.072,1210.471,1601.906,1198.446,1613.536C1186.421,1625.167,1162.371,1636.594,1150.347,1642.308L1138.322,1648.022" id="my-svg-L_NGINX_BROWSER_0" class="edge-thickness-normal edge-pattern-solid edge-thickness-normal edge-pattern-solid flowchart-link" style=";" data-edge="true" data-et="edge" data-id="L_NGINX_BROWSER_0" data-points="W3sieCI6MTE0Ny4xMTY1NTIwNTA2MDcyLCJ5IjoxMzMyLjExOTQ4Mzk0Nzc1NH0seyJ4IjoxMjEwLjQ3MDcwMzEyNSwieSI6MTM4OS4yMzg5Njc4OTU1MDc4fSx7IngiOjEyMTAuNDcwNzAzMTI1LCJ5IjoxNDI0LjczODk2Nzg5NTUwNzh9LHsieCI6MTIxMC40NzA3MDMxMjUsInkiOjE1MDYuNzM4OTY3ODk1NTA3OH0seyJ4IjoxMjEwLjQ3MDcwMzEyNSwieSI6MTU3OC4yMzg5Njc4OTU1MDc4fSx7IngiOjEyMTAuNDcwNzAzMTI1LCJ5IjoxNjEzLjczODk2Nzg5NTUwNzh9LHsieCI6MTEzNC43MDg5NDc4Njc5OTA3LCJ5IjoxNjQ5LjczODk2Nzg5NTUwNzh9XQ==" data-look="classic" marker-start="url(#my-svg_flowchart-v2-pointStart)" marker-end="url(#my-svg_flowchart-v2-pointEnd)"/><path d="M1183.584,126L1183.584,130.167C1183.584,134.333,1183.584,142.667,1183.584,152.75C1183.584,162.833,1183.584,174.667,1183.584,185.833C1183.584,197,1183.584,207.5,1183.584,212.75L1183.584,218" id="my-svg-L_CAM_CV_0" class="edge-thickness-normal edge-pattern-solid edge-thickness-normal edge-pattern-solid flowchart-link" style=";" data-edge="true" data-et="edge" data-id="L_CAM_CV_0" data-points="W3sieCI6MTE4My41ODM5ODQzNzUsInkiOjEyNn0seyJ4IjoxMTgzLjU4Mzk4NDM3NSwieSI6MTUxfSx7IngiOjExODMuNTgzOTg0Mzc1LCJ5IjoxODYuNX0seyJ4IjoxMTgzLjU4Mzk4NDM3NSwieSI6MjIyfV0=" data-look="classic" marker-end="url(#my-svg_flowchart-v2-pointEnd)"/><path d="M1389.148,1090L1392.779,1097.667C1396.41,1105.333,1403.673,1120.667,1407.304,1136C1410.936,1151.333,1410.936,1166.667,1410.936,1177.833C1410.936,1189,1410.936,1196,1410.936,1199.5L1410.936,1203" id="my-svg-L_REPO_PG_0" class="edge-thickness-normal edge-pattern-solid edge-thickness-normal edge-pattern-solid flowchart-link" style=";" data-edge="true" data-et="edge" data-id="L_REPO_PG_0" data-points="W3sieCI6MTM4OS4xNDc2ODg4MDIwODM0LCJ5IjoxMDkwfSx7IngiOjE0MTAuOTM1NTQ2ODc1LCJ5IjoxMTM2fSx7IngiOjE0MTAuOTM1NTQ2ODc1LCJ5IjoxMTgyfSx7IngiOjE0MTAuOTM1NTQ2ODc1LCJ5IjoxMjA3fV0=" data-look="classic" marker-end="url(#my-svg_flowchart-v2-pointEnd)"/><path d="M996.45,1090L993.144,1097.667C989.838,1105.333,983.227,1120.667,979.921,1136C976.615,1151.333,976.615,1166.667,987.039,1183.415C997.462,1200.164,1018.309,1218.328,1028.733,1227.41L1039.156,1236.492" id="my-svg-L_MJPEG_NGINX_0" class="edge-thickness-normal edge-pattern-solid edge-thickness-normal edge-pattern-solid flowchart-link" style=";" data-edge="true" data-et="edge" data-id="L_MJPEG_NGINX_0" data-points="W3sieCI6OTk2LjQ0OTczOTU4MzMzMzMsInkiOjEwOTB9LHsieCI6OTc2LjYxNTIzNDM3NSwieSI6MTEzNn0seyJ4Ijo5NzYuNjE1MjM0Mzc1LCJ5IjoxMTgyfSx7IngiOjEwNDIuMTcyMjAyOTUxNTcxNSwieSI6MTIzOS4xMTk0ODM5NDc3NTR9XQ==" data-look="classic" marker-end="url(#my-svg_flowchart-v2-pointEnd)"/><path d="M1183.584,1090L1183.584,1097.667C1183.584,1105.333,1183.584,1120.667,1183.584,1136C1183.584,1151.333,1183.584,1166.667,1175.927,1183.345C1168.27,1200.024,1152.955,1218.047,1145.298,1227.059L1137.641,1236.071" id="my-svg-L_API_NGINX_0" class="edge-thickness-normal edge-pattern-solid edge-thickness-normal edge-pattern-solid flowchart-link" style=";" data-edge="true" data-et="edge" data-id="L_API_NGINX_0" data-points="W3sieCI6MTE4My41ODM5ODQzNzUsInkiOjEwOTB9LHsieCI6MTE4My41ODM5ODQzNzUsInkiOjExMzZ9LHsieCI6MTE4My41ODM5ODQzNzUsInkiOjExODJ9LHsieCI6MTEzNS4wNTA5NDA2OTc5NjQ1LCJ5IjoxMjM5LjExOTQ4Mzk0Nzc1NH1d" data-look="classic" marker-end="url(#my-svg_flowchart-v2-pointEnd)"/></g><g class="edgeLabels"><g class="edgeLabel" transform="translate(1029.283203125, 1424.7389678955078)"><g class="label" data-id="L_NGINX_REACT_0" transform="translate(-42.8984375, -10.5)"><foreignObject width="85.796875" height="21"><div xmlns="http://www.w3.org/1999/xhtml" class="labelBkg" style="display: table-cell; white-space: nowrap; line-height: 1.5; max-width: 200px; text-align: center;"><span class="edgeLabel"><p>serves bundle</p></span></div></foreignObject></g></g><g class="edgeLabel" transform="translate(1029.283203125, 1613.7389678955078)"><g class="label" data-id="L_REACT_BROWSER_0" transform="translate(-39.03125, -10.5)"><foreignObject width="78.0625" height="21"><div xmlns="http://www.w3.org/1999/xhtml" class="labelBkg" style="display: table-cell; white-space: nowrap; line-height: 1.5; max-width: 200px; text-align: center;"><span class="edgeLabel"><p>axios · fetch</p></span></div></foreignObject></g></g><g class="edgeLabel" transform="translate(1210.470703125, 1506.7389678955078)"><g class="label" data-id="L_NGINX_BROWSER_0" transform="translate(-35.8515625, -10.5)"><foreignObject width="71.703125" height="21"><div xmlns="http://www.w3.org/1999/xhtml" class="labelBkg" style="display: table-cell; white-space: nowrap; line-height: 1.5; max-width: 200px; text-align: center;"><span class="edgeLabel"><p>HTTP :8080</p></span></div></foreignObject></g></g><g class="edgeLabel" transform="translate(1183.583984375, 186.5)"><g class="label" data-id="L_CAM_CV_0" transform="translate(-77.328125, -10.5)"><foreignObject width="154.65625" height="21"><div xmlns="http://www.w3.org/1999/xhtml" class="labelBkg" style="display: table-cell; white-space: nowrap; line-height: 1.5; max-width: 200px; text-align: center;"><span class="edgeLabel"><p>cv2.VideoCapture.read()</p></span></div></foreignObject></g></g><g class="edgeLabel" transform="translate(1410.935546875, 1136)"><g class="label" data-id="L_REPO_PG_0" transform="translate(-50.234375, -21)"><foreignObject width="100.46875" height="42"><div xmlns="http://www.w3.org/1999/xhtml" class="labelBkg" style="display: table-cell; white-space: nowrap; line-height: 1.5; max-width: 200px; text-align: center;"><span class="edgeLabel"><p>SQLAlchemy 2.0<br />psycopg 3</p></span></div></foreignObject></g></g><g class="edgeLabel" transform="translate(976.615234375, 1136)"><g class="label" data-id="L_MJPEG_NGINX_0" transform="translate(-54.4765625, -21)"><foreignObject width="108.953125" height="42"><div xmlns="http://www.w3.org/1999/xhtml" class="labelBkg" style="display: table-cell; white-space: nowrap; line-height: 1.5; max-width: 200px; text-align: center;"><span class="edgeLabel"><p>HTTP 200<br />infinite multipart</p></span></div></foreignObject></g></g><g class="edgeLabel" transform="translate(1183.583984375, 1136)"><g class="label" data-id="L_API_NGINX_0" transform="translate(-52.9375, -10.5)"><foreignObject width="105.875" height="21"><div xmlns="http://www.w3.org/1999/xhtml" class="labelBkg" style="display: table-cell; white-space: nowrap; line-height: 1.5; max-width: 200px; text-align: center;"><span class="edgeLabel"><p>JSON · /api/v1/*</p></span></div></foreignObject></g></g></g><g class="nodes"><g class="root" transform="translate(0, 214)"><g class="clusters"><g class="cluster" id="my-svg-BACKEND" data-look="classic"><rect style="" x="8" y="8" width="2351.16796875" height="868"/><g class="cluster-label" transform="translate(1015.443359375, 8)"><foreignObject width="336.28125" height="21"><div xmlns="http://www.w3.org/1999/xhtml" style="display: table-cell; white-space: nowrap; line-height: 1.5;"><span class="nodeLabel"><p>Backend Container — FastAPI + Pipeline (one process)</p></span></div></foreignObject></g></g></g><g class="edgePaths"><path d="M836.965,429L836.965,440.5C836.965,452,836.965,475,847.227,495.802C857.49,516.605,878.015,535.209,888.278,544.511L898.54,553.814" id="my-svg-L_LP_REPO_0" class="edge-thickness-normal edge-pattern-solid edge-thickness-normal edge-pattern-solid flowchart-link" style=";" data-edge="true" data-et="edge" data-id="L_LP_REPO_0" data-points="W3sieCI6ODM2Ljk2NDg0Mzc1LCJ5Ijo0Mjl9LHsieCI6ODM2Ljk2NDg0Mzc1LCJ5Ijo0OTh9LHsieCI6OTAxLjUwNDE4NTI2Nzg1NzEsInkiOjU1Ni41fV0=" data-look="classic" marker-end="url(#my-svg_flowchart-v2-pointEnd)"/><path d="M2169.941,439.5L2169.941,449.25C2169.941,459,2169.941,478.5,2169.941,497.333C2169.941,516.167,2169.941,534.333,2169.941,543.417L2169.941,552.5" id="my-svg-L_SM_ENC_0" class="edge-thickness-normal edge-pattern-solid edge-thickness-normal edge-pattern-solid flowchart-link" style=";" data-edge="true" data-et="edge" data-id="L_SM_ENC_0" data-points="W3sieCI6MjE2OS45NDE0MDYyNSwieSI6NDM5LjV9LHsieCI6MjE2OS45NDE0MDYyNSwieSI6NDk4fSx7IngiOjIxNjkuOTQxNDA2MjUsInkiOjU1Ni41fV0=" data-look="classic" marker-end="url(#my-svg_flowchart-v2-pointEnd)"/><path d="M2169.941,649.5L2169.941,657.5C2169.941,665.5,2169.941,681.5,2169.941,696.833C2169.941,712.167,2169.941,726.833,2169.941,734.167L2169.941,741.5" id="my-svg-L_ENC_MJPEG_0" class="edge-thickness-normal edge-pattern-solid edge-thickness-normal edge-pattern-solid flowchart-link" style=";" data-edge="true" data-et="edge" data-id="L_ENC_MJPEG_0" data-points="W3sieCI6MjE2OS45NDE0MDYyNSwieSI6NjQ5LjV9LHsieCI6MjE2OS45NDE0MDYyNSwieSI6Njk3LjV9LHsieCI6MjE2OS45NDE0MDYyNSwieSI6NzQ1LjV9XQ==" data-look="classic" marker-end="url(#my-svg_flowchart-v2-pointEnd)"/><path d="M1944.922,157.61L1879.055,175.842C1813.189,194.073,1681.456,230.537,1615.589,268.018C1549.723,305.5,1549.723,344,1549.723,382.5C1549.723,421,1549.723,459.5,1469.527,492.857C1389.331,526.213,1228.94,554.427,1148.745,568.533L1068.549,582.64" id="my-svg-L_API_REPO_0" class="edge-thickness-normal edge-pattern-solid edge-thickness-normal edge-pattern-solid flowchart-link" style=";" data-edge="true" data-et="edge" data-id="L_API_REPO_0" data-points="W3sieCI6MTk0NC45MjE4NzUsInkiOjE1Ny42MDk4OTY0MzI2ODEyNH0seyJ4IjoxNTQ5LjcyMjY1NjI1LCJ5IjoyNjd9LHsieCI6MTU0OS43MjI2NTYyNSwieSI6MzgyLjV9LHsieCI6MTU0OS43MjI2NTYyNSwieSI6NDk4fSx7IngiOjEwNjQuNjA5Mzc1LCJ5Ijo1ODMuMzMzMTU2NjQ0NDgyNH1d" data-look="classic" marker-end="url(#my-svg_flowchart-v2-pointEnd)"/><path d="M2074.151,184L2078.675,197.833C2083.199,211.667,2092.248,239.333,2102.227,262.344C2112.205,285.354,2123.113,303.708,2128.567,312.885L2134.021,322.061" id="my-svg-L_API_SM_0" class="edge-thickness-normal edge-pattern-solid edge-thickness-normal edge-pattern-solid flowchart-link" style=";" data-edge="true" data-et="edge" data-id="L_API_SM_0" data-points="W3sieCI6MjA3NC4xNTA1MDIyMzIxNDMsInkiOjE4NH0seyJ4IjoyMTAxLjI5Njg3NSwieSI6MjY3fSx7IngiOjIxMzYuMDY0ODg0MzM0NDE1NiwieSI6MzI1LjV9XQ==" data-look="classic" marker-end="url(#my-svg_flowchart-v2-pointEnd)"/><path d="M675.702,208.5L640.619,218.25C605.536,228,535.369,247.5,542.71,270.43C550.051,293.361,634.899,319.722,677.323,332.902L719.747,346.082" id="my-svg-L_ALERTS_LP_0" class="edge-thickness-normal edge-pattern-solid edge-thickness-normal edge-pattern-solid flowchart-link" style=";" data-edge="true" data-et="edge" data-id="L_ALERTS_LP_0" data-points="W3sieCI6Njc1LjcwMTkyNTIyMzIxNDMsInkiOjIwOC41fSx7IngiOjQ2NS4yMDMxMjUsInkiOjI2N30seyJ4Ijo3MjMuNTY2NDA2MjUsInkiOjM0Ny4yNjkwNDcyOTM4MTg1fV0=" data-look="classic" marker-end="url(#my-svg_flowchart-v2-pointEnd)"/><path d="M738.159,208.5L710.548,218.25C682.937,228,627.715,247.5,625.825,268.483C623.936,289.466,675.38,311.933,701.101,323.166L726.823,334.399" id="my-svg-L_RULES_LP_0" class="edge-thickness-normal edge-pattern-solid edge-thickness-normal edge-pattern-solid flowchart-link" style=";" data-edge="true" data-et="edge" data-id="L_RULES_LP_0" data-points="W3sieCI6NzM4LjE1OTQ4NjYwNzE0MjksInkiOjIwOC41fSx7IngiOjU3Mi40OTIxODc1LCJ5IjoyNjd9LHsieCI6NzMwLjQ4ODgzOTI4NTcxNDMsInkiOjMzNn1d" data-look="classic" marker-end="url(#my-svg_flowchart-v2-pointEnd)"/><path d="M1219.005,208.5L1248.918,218.25C1278.831,228,1338.658,247.5,1294.537,272.478C1250.417,297.456,1102.349,327.913,1028.315,343.141L954.281,358.369" id="my-svg-L_BT_LP_0" class="edge-thickness-normal edge-pattern-solid edge-thickness-normal edge-pattern-solid flowchart-link" style=";" data-edge="true" data-et="edge" data-id="L_BT_LP_0" data-points="W3sieCI6MTIxOS4wMDQ5Mzg2MTYwNzE1LCJ5IjoyMDguNX0seyJ4IjoxMzk4LjQ4NDM3NSwieSI6MjY3fSx7IngiOjk1MC4zNjMyODEyNSwieSI6MzU5LjE3NDg2MzgyNTEzOTY1fV0=" data-look="classic" marker-end="url(#my-svg_flowchart-v2-pointEnd)"/><path d="M1708.064,208.5L1796.484,218.25C1884.905,228,2061.745,247.5,2144.712,266.427C2227.678,285.354,2216.77,303.708,2211.316,312.885L2205.862,322.061" id="my-svg-L_WORKER_SM_0" class="edge-thickness-normal edge-pattern-solid edge-thickness-normal edge-pattern-solid flowchart-link" style=";" data-edge="true" data-et="edge" data-id="L_WORKER_SM_0" data-points="W3sieCI6MTcwOC4wNjQwNjI1LCJ5IjoyMDguNX0seyJ4IjoyMjM4LjU4NTkzNzUsInkiOjI2N30seyJ4IjoyMjAzLjgxNzkyODE2NTU4NDQsInkiOjMyNS41fV0=" data-look="classic" marker-end="url(#my-svg_flowchart-v2-pointEnd)"/></g><g class="edgeLabels"><g class="edgeLabel" transform="translate(836.96484375, 498)"><g class="label" data-id="L_LP_REPO_0" transform="translate(-54.5546875, -21)"><foreignObject width="109.109375" height="42"><div xmlns="http://www.w3.org/1999/xhtml" class="labelBkg" style="display: table-cell; white-space: nowrap; line-height: 1.5; max-width: 200px; text-align: center;"><span class="edgeLabel"><p>save_domain()<br />via session_scope</p></span></div></foreignObject></g></g><g class="edgeLabel" transform="translate(2169.94140625, 498)"><g class="label" data-id="L_SM_ENC_0" transform="translate(-75.5625, -10.5)"><foreignObject width="151.125" height="21"><div xmlns="http://www.w3.org/1999/xhtml" class="labelBkg" style="display: table-cell; white-space: nowrap; line-height: 1.5; max-width: 200px; text-align: center;"><span class="edgeLabel"><p>get_encoded_since(seq)</p></span></div></foreignObject></g></g><g class="edgeLabel" transform="translate(2169.94140625, 697.5)"><g class="label" data-id="L_ENC_MJPEG_0" transform="translate(-34.6171875, -10.5)"><foreignObject width="69.234375" height="21"><div xmlns="http://www.w3.org/1999/xhtml" class="labelBkg" style="display: table-cell; white-space: nowrap; line-height: 1.5; max-width: 200px; text-align: center;"><span class="edgeLabel"><p>JPEG bytes</p></span></div></foreignObject></g></g><g class="edgeLabel" transform="translate(1549.72265625, 382.5)"><g class="label" data-id="L_API_REPO_0" transform="translate(-83.28125, -10.5)"><foreignObject width="166.5625" height="21"><div xmlns="http://www.w3.org/1999/xhtml" class="labelBkg" style="display: table-cell; white-space: nowrap; line-height: 1.5; max-width: 200px; text-align: center;"><span class="edgeLabel"><p>Depends(get_*_repository)</p></span></div></foreignObject></g></g><g class="edgeLabel" transform="translate(2098.30102, 257.84016)"><g class="label" data-id="L_API_SM_0" transform="translate(-61.125, -10.5)"><foreignObject width="122.25" height="21"><div xmlns="http://www.w3.org/1999/xhtml" class="labelBkg" style="display: table-cell; white-space: nowrap; line-height: 1.5; max-width: 200px; text-align: center;"><span class="edgeLabel"><p>get_video_stream()</p></span></div></foreignObject></g></g><g class="edgeLabel" transform="translate(490.0652, 274.72422)"><g class="label" data-id="L_ALERTS_LP_0" transform="translate(-40.734375, -10.5)"><foreignObject width="81.46875" height="21"><div xmlns="http://www.w3.org/1999/xhtml" class="labelBkg" style="display: table-cell; white-space: nowrap; line-height: 1.5; max-width: 200px; text-align: center;"><span class="edgeLabel"><p>Alert objects</p></span></div></foreignObject></g></g><g class="edgeLabel" transform="translate(574.04158, 266.45288)"><g class="label" data-id="L_RULES_LP_0" transform="translate(-46.5546875, -10.5)"><foreignObject width="93.109375" height="21"><div xmlns="http://www.w3.org/1999/xhtml" class="labelBkg" style="display: table-cell; white-space: nowrap; line-height: 1.5; max-width: 200px; text-align: center;"><span class="edgeLabel"><p>RuleViolation[]</p></span></div></foreignObject></g></g><g class="edgeLabel" transform="translate(1266.87466, 294.07105)"><g class="label" data-id="L_BT_LP_0" transform="translate(-50.796875, -10.5)"><foreignObject width="101.59375" height="21"><div xmlns="http://www.w3.org/1999/xhtml" class="labelBkg" style="display: table-cell; white-space: nowrap; line-height: 1.5; max-width: 200px; text-align: center;"><span class="edgeLabel"><p>TrackedObject[]</p></span></div></foreignObject></g></g><g class="edgeLabel" transform="translate(2007.14597, 241.4794)"><g class="label" data-id="L_WORKER_SM_0" transform="translate(-56.1640625, -21)"><foreignObject width="112.328125" height="42"><div xmlns="http://www.w3.org/1999/xhtml" class="labelBkg" style="display: table-cell; white-space: nowrap; line-height: 1.5; max-width: 200px; text-align: center;"><span class="edgeLabel"><p>annotated frame<br />manager.publish()</p></span></div></foreignObject></g></g></g><g class="nodes"><g class="root" transform="translate(35, 37.5)"><g class="clusters"><g class="cluster" id="my-svg-WORKER" data-look="classic"><rect style="" x="8" y="8" width="1851.921875" height="163"/><g class="cluster-label" transform="translate(739.8984375, 8)"><foreignObject width="388.125" height="21"><div xmlns="http://www.w3.org/1999/xhtml" style="display: table-cell; white-space: nowrap; line-height: 1.5;"><span class="nodeLabel"><p>Pipeline Worker Thread — app.streaming.stream.VideoStream</p></span></div></foreignObject></g></g></g><g class="edgePaths"><path d="M256.406,89.5L271.216,89.5C286.026,89.5,315.646,89.5,344.599,89.5C373.552,89.5,401.839,89.5,415.982,89.5L430.125,89.5" id="my-svg-L_CV_YOLO_0" class="edge-thickness-normal edge-pattern-solid edge-thickness-normal edge-pattern-solid flowchart-link" style=";" data-edge="true" data-et="edge" data-id="L_CV_YOLO_0" data-points="W3sieCI6MjU2LjQwNjI1LCJ5Ijo4OS41fSx7IngiOjM0NS4yNjU2MjUsInkiOjg5LjV9LHsieCI6NDM0LjEyNSwieSI6ODkuNX1d" data-look="classic" marker-end="url(#my-svg_flowchart-v2-pointEnd)"/><path d="M582.484,89.5L599.09,89.5C615.695,89.5,648.906,89.5,681.451,89.5C713.995,89.5,745.872,89.5,761.811,89.5L777.75,89.5" id="my-svg-L_YOLO_BT_0" class="edge-thickness-normal edge-pattern-solid edge-thickness-normal edge-pattern-solid flowchart-link" style=";" data-edge="true" data-et="edge" data-id="L_YOLO_BT_0" data-points="W3sieCI6NTgyLjQ4NDM3NSwieSI6ODkuNX0seyJ4Ijo2ODIuMTE3MTg3NSwieSI6ODkuNX0seyJ4Ijo3ODEuNzUsInkiOjg5LjV9XQ==" data-look="classic" marker-end="url(#my-svg_flowchart-v2-pointEnd)"/><path d="M964.859,89.5L981.659,89.5C998.458,89.5,1032.057,89.5,1064.99,89.5C1097.922,89.5,1130.188,89.5,1146.32,89.5L1162.453,89.5" id="my-svg-L_BT_RULES_0" class="edge-thickness-normal edge-pattern-solid edge-thickness-normal edge-pattern-solid flowchart-link" style=";" data-edge="true" data-et="edge" data-id="L_BT_RULES_0" data-points="W3sieCI6OTY0Ljg1OTM3NSwieSI6ODkuNX0seyJ4IjoxMDY1LjY1NjI1LCJ5Ijo4OS41fSx7IngiOjExNjYuNDUzMTI1LCJ5Ijo4OS41fV0=" data-look="classic" marker-end="url(#my-svg_flowchart-v2-pointEnd)"/><path d="M1406.969,89.5L1420.75,89.5C1434.531,89.5,1462.094,89.5,1488.99,89.5C1515.885,89.5,1542.115,89.5,1555.229,89.5L1568.344,89.5" id="my-svg-L_RULES_ALERTS_0" class="edge-thickness-normal edge-pattern-solid edge-thickness-normal edge-pattern-solid flowchart-link" style=";" data-edge="true" data-et="edge" data-id="L_RULES_ALERTS_0" data-points="W3sieCI6MTQwNi45Njg3NSwieSI6ODkuNX0seyJ4IjoxNDg5LjY1NjI1LCJ5Ijo4OS41fSx7IngiOjE1NzIuMzQzNzUsInkiOjg5LjV9XQ==" data-look="classic" marker-end="url(#my-svg_flowchart-v2-pointEnd)"/></g><g class="edgeLabels"><g class="edgeLabel" transform="translate(345.265625, 89.5)"><g class="label" data-id="L_CV_YOLO_0" transform="translate(-38.859375, -10.5)"><foreignObject width="77.71875" height="21"><div xmlns="http://www.w3.org/1999/xhtml" class="labelBkg" style="display: table-cell; white-space: nowrap; line-height: 1.5; max-width: 200px; text-align: center;"><span class="edgeLabel"><p>BGR ndarray</p></span></div></foreignObject></g></g><g class="edgeLabel" transform="translate(682.1171875, 89.5)"><g class="label" data-id="L_YOLO_BT_0" transform="translate(-49.6328125, -10.5)"><foreignObject width="99.265625" height="21"><div xmlns="http://www.w3.org/1999/xhtml" class="labelBkg" style="display: table-cell; white-space: nowrap; line-height: 1.5; max-width: 200px; text-align: center;"><span class="edgeLabel"><p>DetectionResult</p></span></div></foreignObject></g></g><g class="edgeLabel" transform="translate(1065.65625, 89.5)"><g class="label" data-id="L_BT_RULES_0" transform="translate(-50.796875, -10.5)"><foreignObject width="101.59375" height="21"><div xmlns="http://www.w3.org/1999/xhtml" class="labelBkg" style="display: table-cell; white-space: nowrap; line-height: 1.5; max-width: 200px; text-align: center;"><span class="edgeLabel"><p>TrackedObject[]</p></span></div></foreignObject></g></g><g class="edgeLabel" transform="translate(1489.65625, 89.5)"><g class="label" data-id="L_RULES_ALERTS_0" transform="translate(-32.6875, -10.5)"><foreignObject width="65.375" height="21"><div xmlns="http://www.w3.org/1999/xhtml" class="labelBkg" style="display: table-cell; white-space: nowrap; line-height: 1.5; max-width: 200px; text-align: center;"><span class="edgeLabel"><p>RuleResult</p></span></div></foreignObject></g></g></g><g class="nodes"><g class="node default vision" id="my-svg-flowchart-CV-1" data-look="classic" transform="translate(157.203125, 89.5)"><rect class="basic label-container" style="fill:#0E1620 !important;stroke:#3B82F6 !important;stroke-width:2px !important" x="-99.203125" y="-46.5" width="198.40625" height="93"/><g class="label" style="color:#E6E9EC !important" transform="translate(-69.203125, -31.5)"><rect/><foreignObject width="138.40625" height="63"><div style="color: rgb(230, 233, 236) !important; display: table-cell; white-space: nowrap; line-height: 1.5; max-width: 200px; text-align: center;" xmlns="http://www.w3.org/1999/xhtml"><span style="color:#E6E9EC !important" class="nodeLabel"><p><b>OpenCV</b><br />app.video.Camera<br />app.image_processing</p></span></div></foreignObject></g></g><g class="node default vision" id="my-svg-flowchart-YOLO-2" data-look="classic" transform="translate(508.3046875, 89.5)"><rect class="basic label-container" style="fill:#0E1620 !important;stroke:#3B82F6 !important;stroke-width:2px !important" x="-74.1796875" y="-46.5" width="148.359375" height="93"/><g class="label" style="color:#E6E9EC !important" transform="translate(-44.1796875, -31.5)"><rect/><foreignObject width="88.359375" height="63"><div style="color: rgb(230, 233, 236) !important; display: table-cell; white-space: nowrap; line-height: 1.5; max-width: 200px; text-align: center;" xmlns="http://www.w3.org/1999/xhtml"><span style="color:#E6E9EC !important" class="nodeLabel"><p><b>YOLOv8</b><br />app.detection<br />Ultralytics</p></span></div></foreignObject></g></g><g class="node default vision" id="my-svg-flowchart-BT-3" data-look="classic" transform="translate(873.3046875, 89.5)"><rect class="basic label-container" style="fill:#0E1620 !important;stroke:#3B82F6 !important;stroke-width:2px !important" x="-91.5546875" y="-46.5" width="183.109375" height="93"/><g class="label" style="color:#E6E9EC !important" transform="translate(-61.5546875, -31.5)"><rect/><foreignObject width="123.109375" height="63"><div style="color: rgb(230, 233, 236) !important; display: table-cell; white-space: nowrap; line-height: 1.5; max-width: 200px; text-align: center;" xmlns="http://www.w3.org/1999/xhtml"><span style="color:#E6E9EC !important" class="nodeLabel"><p><b>ByteTrack</b><br />app.tracking<br />identity assignment</p></span></div></foreignObject></g></g><g class="node default safety" id="my-svg-flowchart-RULES-4" data-look="classic" transform="translate(1286.7109375, 89.5)"><rect class="basic label-container" style="fill:#1a1012 !important;stroke:#EF4444 !important;stroke-width:2px !important" x="-120.2578125" y="-46.5" width="240.515625" height="93"/><g class="label" style="color:#E6E9EC !important" transform="translate(-90.2578125, -31.5)"><rect/><foreignObject width="180.515625" height="63"><div style="color: rgb(230, 233, 236) !important; display: table-cell; white-space: nowrap; line-height: 1.5; max-width: 200px; text-align: center;" xmlns="http://www.w3.org/1999/xhtml"><span style="color:#E6E9EC !important" class="nodeLabel"><p><b>Rule Engine</b><br />app.rules<br />zones · distance · occupancy</p></span></div></foreignObject></g></g><g class="node default safety" id="my-svg-flowchart-ALERTS-5" data-look="classic" transform="translate(1691.1328125, 89.5)"><rect class="basic label-container" style="fill:#1a1012 !important;stroke:#EF4444 !important;stroke-width:2px !important" x="-118.7890625" y="-46.5" width="237.578125" height="93"/><g class="label" style="color:#E6E9EC !important" transform="translate(-88.7890625, -31.5)"><rect/><foreignObject width="177.578125" height="63"><div style="color: rgb(230, 233, 236) !important; display: table-cell; white-space: nowrap; line-height: 1.5; max-width: 200px; text-align: center;" xmlns="http://www.w3.org/1999/xhtml"><span style="color:#E6E9EC !important" class="nodeLabel"><p><b>Alert Engine</b><br />app.alerts<br />dedup · cooldown · escalate</p></span></div></foreignObject></g></g></g></g><g class="node default infra" id="my-svg-flowchart-LP-16" data-look="classic" transform="translate(836.96484375, 382.5)"><rect class="basic label-container" style="fill:#0E1013 !important;stroke:#2A3138 !important;stroke-width:1.5px !important" x="-113.3984375" y="-46.5" width="226.796875" height="93"/><g class="label" style="color:#E6E9EC !important" transform="translate(-83.3984375, -31.5)"><rect/><foreignObject width="166.796875" height="63"><div style="color: rgb(230, 233, 236) !important; display: table-cell; white-space: nowrap; line-height: 1.5; max-width: 200px; text-align: center;" xmlns="http://www.w3.org/1999/xhtml"><span style="color:#E6E9EC !important" class="nodeLabel"><p><b>LivePersistence</b><br />app.streaming.persistence<br /><i>debounced writes</i></p></span></div></foreignObject></g></g><g class="node default infra" id="my-svg-flowchart-REPO-17" data-look="classic" transform="translate(952.8046875, 603)"><rect class="basic label-container" style="fill:#0E1013 !important;stroke:#2A3138 !important;stroke-width:1.5px !important" x="-111.8046875" y="-46.5" width="223.609375" height="93"/><g class="label" style="color:#E6E9EC !important" transform="translate(-81.8046875, -31.5)"><rect/><foreignObject width="163.609375" height="63"><div style="color: rgb(230, 233, 236) !important; display: table-cell; white-space: nowrap; line-height: 1.5; max-width: 200px; text-align: center;" xmlns="http://www.w3.org/1999/xhtml"><span style="color:#E6E9EC !important" class="nodeLabel"><p><b>Repositories</b><br />app.database.repositories<br /><i>only module issuing SQL</i></p></span></div></foreignObject></g></g><g class="node default infra" id="my-svg-flowchart-SM-14" data-look="classic" transform="translate(2169.94140625, 382.5)"><rect class="basic label-container" style="fill:#0E1013 !important;stroke:#2A3138 !important;stroke-width:1.5px !important" x="-130" y="-57" width="260" height="114"/><g class="label" style="color:#E6E9EC !important" transform="translate(-100, -42)"><rect/><foreignObject width="200" height="84"><div style="color: rgb(230, 233, 236) !important; display: table; white-space: break-spaces; line-height: 1.5; max-width: 200px; text-align: center; width: 200px;" xmlns="http://www.w3.org/1999/xhtml"><span style="color:#E6E9EC !important" class="nodeLabel"><p><b>StreamManager</b><br />app.streaming.stream_manager<br /><i>latest-frame-wins · thread-safe</i></p></span></div></foreignObject></g></g><g class="node default infra" id="my-svg-flowchart-ENC-15" data-look="classic" transform="translate(2169.94140625, 603)"><rect class="basic label-container" style="fill:#0E1013 !important;stroke:#2A3138 !important;stroke-width:1.5px !important" x="-125.1796875" y="-46.5" width="250.359375" height="93"/><g class="label" style="color:#E6E9EC !important" transform="translate(-95.1796875, -31.5)"><rect/><foreignObject width="190.359375" height="63"><div style="color: rgb(230, 233, 236) !important; display: table-cell; white-space: nowrap; line-height: 1.5; max-width: 200px; text-align: center;" xmlns="http://www.w3.org/1999/xhtml"><span style="color:#E6E9EC !important" class="nodeLabel"><p><b>FrameEncoder</b><br />app.streaming.frame_encoder<br /><i>encode once per sequence</i></p></span></div></foreignObject></g></g><g class="node default infra" id="my-svg-flowchart-MJPEG-19" data-look="classic" transform="translate(2169.94140625, 792)"><rect class="basic label-container" style="fill:#0E1013 !important;stroke:#2A3138 !important;stroke-width:1.5px !important" x="-114.359375" y="-46.5" width="228.71875" height="93"/><g class="label" style="color:#E6E9EC !important" transform="translate(-84.359375, -31.5)"><rect/><foreignObject width="168.71875" height="63"><div style="color: rgb(230, 233, 236) !important; display: table-cell; white-space: nowrap; line-height: 1.5; max-width: 200px; text-align: center;" xmlns="http://www.w3.org/1999/xhtml"><span style="color:#E6E9EC !important" class="nodeLabel"><p><b>MJPEG Generator</b><br />app.streaming.mjpeg<br />multipart/x-mixed-replace</p></span></div></foreignObject></g></g><g class="node default infra" id="my-svg-flowchart-API-18" data-look="classic" transform="translate(2055.5078125, 127)"><rect class="basic label-container" style="fill:#0E1013 !important;stroke:#2A3138 !important;stroke-width:1.5px !important" x="-110.5859375" y="-57" width="221.171875" height="114"/><g class="label" style="color:#E6E9EC !important" transform="translate(-80.5859375, -42)"><rect/><foreignObject width="161.171875" height="84"><div style="color: rgb(230, 233, 236) !important; display: table-cell; white-space: nowrap; line-height: 1.5; max-width: 200px; text-align: center;" xmlns="http://www.w3.org/1999/xhtml"><span style="color:#E6E9EC !important" class="nodeLabel"><p><b>FastAPI Routers</b><br />app.api.routers<br />alerts · violations · tracks<br />system · stream · health</p></span></div></foreignObject></g></g></g></g><g class="node default capture" id="my-svg-flowchart-CAM-0" data-look="classic" transform="translate(1183.583984375, 79.5)"><rect class="basic label-container" style="fill:#1a1410 !important;stroke:#F59E0B !important;stroke-width:2px !important" x="-114.3359375" y="-46.5" width="228.671875" height="93"/><g class="label" style="color:#E6E9EC !important" transform="translate(-84.3359375, -31.5)"><rect/><foreignObject width="168.671875" height="63"><div style="color: rgb(230, 233, 236) !important; display: table-cell; white-space: nowrap; line-height: 1.5; max-width: 200px; text-align: center;" xmlns="http://www.w3.org/1999/xhtml"><span style="color:#E6E9EC !important" class="nodeLabel"><p><b>Video Source</b><br /><i>webcam index · file · RTSP</i><br />STREAM_SOURCE</p></span></div></foreignObject></g></g><g class="node default store" id="my-svg-flowchart-PG-20" data-look="classic" transform="translate(1410.935546875, 1285.619483947754)"><path d="M0,12.415843453092556 a61.6640625,12.415843453092556 0,0,0 123.328125,0 a61.6640625,12.415843453092556 0,0,0 -123.328125,0 l0,132.41584345309255 a61.6640625,12.415843453092556 0,0,0 123.328125,0 l0,-132.41584345309255" class="basic label-container outer-path" style="fill:#0d1a16 !important;stroke:#10B981 !important;stroke-width:2px !important" transform="translate(-61.6640625, -78.62376517963884)"/><g class="label" style="color:#E6E9EC !important" transform="translate(-54.1640625, -42.5)"><rect/><foreignObject width="108.328125" height="105"><div style="color: rgb(230, 233, 236) !important; display: table-cell; white-space: nowrap; line-height: 1.5; max-width: 200px; text-align: center;" xmlns="http://www.w3.org/1999/xhtml"><span style="color:#E6E9EC !important" class="nodeLabel"><p><b>PostgreSQL 16</b><br />alert_records<br />violation_records<br />track_records<br />system_events</p></span></div></foreignObject></g></g><g class="node default infra" id="my-svg-flowchart-NGINX-21" data-look="classic" transform="translate(1095.541015625, 1285.619483947754)"><rect class="basic label-container" style="fill:#0E1013 !important;stroke:#2A3138 !important;stroke-width:1.5px !important" x="-76.75" y="-46.5" width="153.5" height="93"/><g class="label" style="color:#E6E9EC !important" transform="translate(-46.75, -31.5)"><rect/><foreignObject width="93.5" height="63"><div style="color: rgb(230, 233, 236) !important; display: table-cell; white-space: nowrap; line-height: 1.5; max-width: 200px; text-align: center;" xmlns="http://www.w3.org/1999/xhtml"><span style="color:#E6E9EC !important" class="nodeLabel"><p><b>nginx 1.27</b><br />static bundle +<br />reverse proxy</p></span></div></foreignObject></g></g><g class="node default client" id="my-svg-flowchart-REACT-22" data-look="classic" transform="translate(1029.283203125, 1506.7389678955078)"><rect class="basic label-container" style="fill:#141019 !important;stroke:#8B5CF6 !important;stroke-width:2px !important" x="-110.3359375" y="-46.5" width="220.671875" height="93"/><g class="label" style="color:#E6E9EC !important" transform="translate(-80.3359375, -31.5)"><rect/><foreignObject width="160.671875" height="63"><div style="color: rgb(230, 233, 236) !important; display: table-cell; white-space: nowrap; line-height: 1.5; max-width: 200px; text-align: center;" xmlns="http://www.w3.org/1999/xhtml"><span style="color:#E6E9EC !important" class="nodeLabel"><p><b>React Dashboard</b><br />8 routes · TanStack Query<br />Recharts · Tailwind</p></span></div></foreignObject></g></g><g class="node default client" id="my-svg-flowchart-BROWSER-23" data-look="classic" transform="translate(1095.541015625, 1667.2389678955078)"><g class="basic label-container outer-path"><path d="M-63.7265625 -18 C-17.710130048901867 -18, 28.306302402196266 -18, 63.7265625 -18 C63.7265625 -18, 63.7265625 -18, 63.7265625 -18 C63.95886700486801 -17.99255044668217, 64.19117150973602 -17.985100893364343, 64.87982645965283 -17.963017069506055 C65.16280046379333 -17.935718907652653, 65.44577446793383 -17.908420745799248, 66.02835141032111 -17.85222024881843 C66.25977637906759 -17.814805254598934, 66.49120134781408 -17.77739026037944, 67.16741781662469 -17.668064825839178 C67.5710585921331 -17.575936452831606, 67.9746993676415 -17.48380807982403, 68.29234501037112 -17.41130753470253 C68.56086269316906 -17.33161289592618, 68.82938037596699 -17.251918257149832, 69.39851042442517 -17.083003446192034 C69.79362711910909 -16.937596850129662, 70.18874381379302 -16.792190254067293, 70.48136858782874 -16.68450163222839 C70.77432404569664 -16.554818941245163, 71.06727950356455 -16.42513625026194, 71.53646980411605 -16.217439622243546 C71.7484354506313 -16.10685728022702, 71.96040109714654 -15.996274938210487, 72.55947843607088 -15.683736674221011 C72.82141618013202 -15.524948474454101, 73.08335392419316 -15.366160274687191, 73.54619072178987 -15.085585888053133 C73.78641166243105 -14.918018158858764, 74.02663260307223 -14.750450429664395, 74.49255204884189 -14.425445193623219 C74.78147964745726 -14.195033122413761, 75.07040724607263 -13.964621051204304, 75.39467361554019 -13.706027250644421 C75.61438877815044 -13.506487753306432, 75.83410394076068 -13.306948255968443, 76.24884841086275 -12.930288301759097 C76.45224941624537 -12.720260064168437, 76.65565042162798 -12.510231826577778, 77.05156644735568 -12.101416024703706 C77.29449469513199 -11.81605868185677, 77.53742294290828 -11.530701339009836, 77.79952918442453 -11.222816433457204 C77.98976065322789 -10.967923595704026, 78.17999212203125 -10.713030757950845, 78.4896630827452 -10.298099882199057 C78.72819785236521 -9.931646420508446, 78.96673262198523 -9.565192958817834, 79.11913223409623 -9.331066229589453 C79.26383485383302 -9.074132075517648, 79.40853747356981 -8.81719792144584, 79.685350014714 -8.325689224335035 C79.80500534478034 -8.077222371238378, 79.92466067484666 -7.828755518141721, 80.18598971428463 -7.286100176203093 C80.31598078071393 -6.9650197289164195, 80.44597184714323 -6.643939281629747, 80.61899409689568 -6.216570979583546 C80.70148652579809 -5.968116927113119, 80.7839789547005 -5.719662874642692, 80.9825838546599 -5.121496559358589 C81.07130699715735 -4.783156764162578, 81.16003013965481 -4.444816968966565, 81.27526491927283 -4.005376811213661 C81.32322892533323 -3.7590917772897683, 81.37119293139364 -3.5128067433658763, 81.4958346014601 -2.872798110600833 C81.52905236589957 -2.6151676891977655, 81.56227013033906 -2.357537267794698, 81.64338653308556 -1.728414466338275 C81.66199513701677 -1.4385704395148324, 81.680603740948 -1.1487264126913899, 81.71731439161238 -0.576928396289793 C81.71731439161238 -0.1183088162756582, 81.71731439161238 0.3403107637384766, 81.71731439161238 0.5769283962897886 C81.70003561089722 0.84605935310916, 81.68275683018206 1.1151903099285314, 81.64338653308556 1.7284144663382628 C81.60420224266309 2.032320085041654, 81.56501795224061 2.3362257037450456, 81.4958346014601 2.8727981106008205 C81.4259340507424 3.231722665049609, 81.3560335000247 3.590647219498398, 81.27526491927283 4.005376811213657 C81.21017532485156 4.253591644750611, 81.1450857304303 4.501806478287564, 80.9825838546599 5.121496559358577 C80.88174091461617 5.425219427629728, 80.78089797457245 5.728942295900879, 80.61899409689569 6.216570979583534 C80.45799491983597 6.614242059628379, 80.29699574277625 7.011913139673222, 80.18598971428463 7.286100176203088 C80.04593859256589 7.576919327066003, 79.90588747084715 7.867738477928919, 79.685350014714 8.325689224335031 C79.50094456957281 8.65311976525938, 79.31653912443161 8.98055030618373, 79.11913223409623 9.33106622958945 C78.98532722668925 9.536626652641976, 78.85152221928226 9.7421870756945, 78.48966308274521 10.298099882199049 C78.35084238576914 10.484106969321314, 78.21202168879307 10.67011405644358, 77.79952918442454 11.2228164334572 C77.5858793231006 11.473781717589798, 77.37222946177667 11.724747001722394, 77.05156644735568 12.101416024703695 C76.87481103758446 12.283930497181506, 76.69805562781325 12.466444969659317, 76.24884841086276 12.930288301759093 C75.91085838663447 13.237241899037235, 75.57286836240617 13.544195496315377, 75.3946736155402 13.706027250644409 C75.17730724768951 13.879371144643354, 74.95994087983883 14.052715038642301, 74.49255204884189 14.425445193623217 C74.29069555708578 14.566251544045583, 74.08883906532968 14.707057894467951, 73.54619072178988 15.085585888053126 C73.27880827286259 15.247674699906536, 73.0114258239353 15.409763511759945, 72.55947843607088 15.68373667422101 C72.16926954805409 15.887308401158645, 71.7790606600373 16.09088012809628, 71.53646980411605 16.217439622243543 C71.16205180535174 16.383183363581196, 70.78763380658741 16.54892710491885, 70.48136858782874 16.68450163222839 C70.10495915982202 16.823023781225473, 69.7285497318153 16.961545930222556, 69.39851042442518 17.08300344619203 C69.17584064801241 17.149090667013834, 68.95317087159964 17.21517788783564, 68.29234501037115 17.411307534702527 C67.92781965439133 17.494508068454667, 67.5632942984115 17.57770860220681, 67.1674178166247 17.668064825839174 C66.79980469382807 17.72749766465059, 66.43219157103144 17.786930503462006, 66.02835141032112 17.85222024881843 C65.70315450671556 17.88359160300276, 65.37795760310999 17.914962957187093, 64.87982645965283 17.963017069506055 C64.61121362873314 17.97163096017049, 64.34260079781345 17.98024485083493, 63.7265625 18 C63.7265625 18, 63.7265625 18, 63.7265625 18 C26.78519357172396 18, -10.156175356552083 18, -63.7265625 18 C-64.17157500614002 17.985729315092385, -64.61658751228003 17.971458630184774, -64.87982645965282 17.963017069506055 C-65.29044165319662 17.923405515621905, -65.70105684674044 17.883793961737755, -66.02835141032111 17.85222024881843 C-66.29403506934412 17.80926657523514, -66.55971872836712 17.766312901651848, -67.1674178166247 17.668064825839174 C-67.48642803089108 17.59525282616907, -67.80543824515745 17.52244082649897, -68.29234501037112 17.41130753470253 C-68.58859555739829 17.323381927395722, -68.88484610442545 17.235456320088915, -69.39851042442517 17.083003446192038 C-69.7162878231983 16.966058425941455, -70.03406522197143 16.84911340569087, -70.48136858782874 16.68450163222839 C-70.71646132600135 16.580433050817675, -70.95155406417395 16.476364469406963, -71.53646980411604 16.217439622243546 C-71.830220096402 16.064190282914, -72.12397038868797 15.910940943584459, -72.55947843607088 15.683736674221013 C-72.81572612512733 15.528397819236426, -73.07197381418376 15.37305896425184, -73.54619072178987 15.085585888053139 C-73.88034937567984 14.852491276594474, -74.21450802956983 14.619396665135808, -74.49255204884189 14.42544519362322 C-74.68774435572476 14.269784523169562, -74.88293666260763 14.114123852715903, -75.39467361554019 13.706027250644423 C-75.63365877450272 13.488987252475454, -75.87264393346526 13.271947254306482, -76.24884841086275 12.930288301759106 C-76.50625414190438 12.664495751055076, -76.76365987294601 12.398703200351047, -77.05156644735568 12.101416024703703 C-77.25382312908268 11.863833817615953, -77.45607981080967 11.626251610528204, -77.79952918442453 11.222816433457206 C-78.04111982590842 10.899106983228993, -78.28271046739233 10.575397533000778, -78.4896630827452 10.29809988219906 C-78.64357407315482 10.061651270042088, -78.79748506356444 9.825202657885118, -79.11913223409623 9.33106622958946 C-79.2915274866032 9.024961001851059, -79.46392273911016 8.718855774112658, -79.685350014714 8.325689224335036 C-79.87329709644642 7.935413087694336, -80.06124417817885 7.545136951053634, -80.18598971428463 7.286100176203095 C-80.29719687725931 7.011416333611385, -80.408404040234 6.7367324910196755, -80.61899409689568 6.2165709795835475 C-80.69481369502053 5.98821443024395, -80.77063329314537 5.759857880904352, -80.9825838546599 5.121496559358584 C-81.04281899814478 4.891793851174388, -81.10305414162966 4.662091142990192, -81.27526491927281 4.005376811213663 C-81.32004315626169 3.7754500281595726, -81.36482139325055 3.545523245105482, -81.4958346014601 2.8727981106008347 C-81.5363707323942 2.5584078838403626, -81.5769068633283 2.2440176570798904, -81.64338653308556 1.7284144663382852 C-81.66171034319471 1.4430063331749163, -81.68003415330386 1.1575982000115475, -81.71731439161238 0.5769283962897952 C-81.71731439161238 0.3072061734942603, -81.71731439161238 0.037483950698725454, -81.71731439161238 -0.5769283962897864 C-81.70220803511125 -0.8122220924262719, -81.68710167861013 -1.0475157885627573, -81.64338653308556 -1.7284144663382603 C-81.58711006888635 -2.16488360962261, -81.53083360468712 -2.6013527529069598, -81.4958346014601 -2.8727981106008262 C-81.40877115248556 -3.31985052021867, -81.32170770351101 -3.7669029298365144, -81.27526491927283 -4.005376811213655 C-81.18421390070944 -4.352593806756949, -81.09316288214603 -4.6998108023002425, -80.9825838546599 -5.121496559358575 C-80.84086090185208 -5.548343512729669, -80.69913794904427 -5.975190466100764, -80.61899409689569 -6.2165709795835244 C-80.51031634060759 -6.48500713875663, -80.40163858431949 -6.753443297929734, -80.18598971428463 -7.286100176203086 C-80.03442271479038 -7.600832293667152, -79.88285571529615 -7.915564411131218, -79.685350014714 -8.32568922433503 C-79.48301925654849 -8.68494797366884, -79.28068849838296 -9.044206723002652, -79.11913223409623 -9.331066229589455 C-78.90522925714984 -9.659678643170912, -78.69132628020346 -9.98829105675237, -78.48966308274521 -10.298099882199054 C-78.24138456054193 -10.630770483312759, -77.99310603833867 -10.963441084426462, -77.79952918442454 -11.2228164334572 C-77.59577363672432 -11.462159293804996, -77.39201808902408 -11.701502154152793, -77.05156644735568 -12.101416024703695 C-76.81817300589313 -12.342413914971683, -76.58477956443059 -12.583411805239672, -76.24884841086276 -12.930288301759086 C-76.04017610406346 -13.11979896962752, -75.83150379726416 -13.309309637495957, -75.3946736155402 -13.706027250644407 C-75.0864702196704 -13.951811257213764, -74.7782668238006 -14.197595263783123, -74.4925520488419 -14.425445193623215 C-74.22635722139421 -14.61113118186237, -73.9601623939465 -14.796817170101527, -73.54619072178988 -15.085585888053124 C-73.16402403668795 -15.317257578422648, -72.78185735158601 -15.54892926879217, -72.55947843607089 -15.683736674221008 C-72.25805822920809 -15.840987403072472, -71.9566380223453 -15.998238131923934, -71.53646980411605 -16.217439622243543 C-71.30442077381852 -16.320160844466347, -71.07237174352099 -16.42288206668915, -70.48136858782874 -16.684501632228386 C-70.23759983717686 -16.77421078584191, -69.99383108652498 -16.86391993945543, -69.39851042442518 -17.08300344619203 C-69.04137062027898 -17.189000665397536, -68.6842308161328 -17.29499788460304, -68.29234501037115 -17.411307534702523 C-67.97992681620678 -17.482614948801295, -67.6675086220424 -17.55392236290007, -67.1674178166247 -17.668064825839174 C-66.73314849457854 -17.73827412201871, -66.2988791725324 -17.80848341819824, -66.02835141032112 -17.85222024881843 C-65.66945606042886 -17.88684245158773, -65.31056071053659 -17.921464654357028, -64.87982645965283 -17.963017069506055 C-64.48258884228615 -17.97575570671889, -64.08535122491945 -17.98849434393172, -63.72656250000001 -18 C-63.72656250000001 -18, -63.7265625 -18, -63.7265625 -18" stroke="none" stroke-width="0" fill="#141019" style="fill:#141019 !important;stroke:#8B5CF6 !important;stroke-width:2px !important"/><path d="M-63.7265625 -18 C-37.821760629226475 -18, -11.916958758452942 -18, 63.7265625 -18 M-63.7265625 -18 C-35.278981969834554 -18, -6.831401439669108 -18, 63.7265625 -18 M63.7265625 -18 C63.7265625 -18, 63.7265625 -18, 63.7265625 -18 M63.7265625 -18 C63.7265625 -18, 63.7265625 -18, 63.7265625 -18 M63.7265625 -18 C64.01514998749934 -17.990745560977363, 64.30373747499868 -17.98149112195473, 64.87982645965283 -17.963017069506055 M63.7265625 -18 C64.1731969748755 -17.98567730171201, 64.619831449751 -17.971354603424018, 64.87982645965283 -17.963017069506055 M64.87982645965283 -17.963017069506055 C65.14631551435416 -17.937309190898997, 65.41280456905547 -17.91160131229194, 66.02835141032111 -17.85222024881843 M64.87982645965283 -17.963017069506055 C65.18463259956651 -17.933612787771597, 65.48943873948019 -17.90420850603714, 66.02835141032111 -17.85222024881843 M66.02835141032111 -17.85222024881843 C66.40349740227056 -17.79156955414066, 66.77864339422003 -17.73091885946289, 67.16741781662469 -17.668064825839178 M66.02835141032111 -17.85222024881843 C66.2742679608762 -17.812462368036016, 66.5201845114313 -17.7727044872536, 67.16741781662469 -17.668064825839178 M67.16741781662469 -17.668064825839178 C67.5609187414798 -17.57825080757451, 67.95441966633491 -17.48843678930984, 68.29234501037112 -17.41130753470253 M67.16741781662469 -17.668064825839178 C67.44384704175563 -17.604971659072316, 67.72027626688656 -17.541878492305454, 68.29234501037112 -17.41130753470253 M68.29234501037112 -17.41130753470253 C68.62205219407232 -17.313452173248336, 68.95175937777353 -17.215596811794143, 69.39851042442517 -17.083003446192034 M68.29234501037112 -17.41130753470253 C68.54891499341171 -17.335158910499405, 68.8054849764523 -17.25901028629628, 69.39851042442517 -17.083003446192034 M69.39851042442517 -17.083003446192034 C69.72308591593548 -16.963556664973286, 70.0476614074458 -16.844109883754538, 70.48136858782874 -16.68450163222839 M69.39851042442517 -17.083003446192034 C69.72955848891515 -16.961174698284964, 70.06060655340511 -16.839345950377894, 70.48136858782874 -16.68450163222839 M70.48136858782874 -16.68450163222839 C70.69283114493028 -16.59089343101342, 70.90429370203182 -16.497285229798454, 71.53646980411605 -16.217439622243546 M70.48136858782874 -16.68450163222839 C70.89700356117433 -16.500512358901723, 71.3126385345199 -16.316523085575053, 71.53646980411605 -16.217439622243546 M71.53646980411605 -16.217439622243546 C71.90445299120003 -16.02546302924631, 72.27243617828402 -15.833486436249075, 72.55947843607088 -15.683736674221011 M71.53646980411605 -16.217439622243546 C71.85572059610686 -16.050886688551827, 72.17497138809769 -15.884333754860108, 72.55947843607088 -15.683736674221011 M72.55947843607088 -15.683736674221011 C72.86339865291656 -15.499498452735718, 73.16731886976224 -15.315260231250424, 73.54619072178987 -15.085585888053133 M72.55947843607088 -15.683736674221011 C72.80175589360418 -15.536866655683946, 73.04403335113747 -15.389996637146883, 73.54619072178987 -15.085585888053133 M73.54619072178987 -15.085585888053133 C73.7436096694695 -14.94787497628032, 73.94102861714916 -14.810164064507505, 74.49255204884189 -14.425445193623219 M73.54619072178987 -15.085585888053133 C73.77062996644146 -14.92902678680249, 73.99506921109307 -14.772467685551847, 74.49255204884189 -14.425445193623219 M74.49255204884189 -14.425445193623219 C74.71235245472067 -14.25016021906934, 74.93215286059944 -14.07487524451546, 75.39467361554019 -13.706027250644421 M74.49255204884189 -14.425445193623219 C74.7159551705043 -14.247287149104185, 74.93935829216672 -14.069129104585151, 75.39467361554019 -13.706027250644421 M75.39467361554019 -13.706027250644421 C75.64720639610506 -13.476683660986632, 75.89973917666994 -13.247340071328843, 76.24884841086275 -12.930288301759097 M75.39467361554019 -13.706027250644421 C75.59155837833454 -13.52722171835995, 75.7884431411289 -13.348416186075479, 76.24884841086275 -12.930288301759097 M76.24884841086275 -12.930288301759097 C76.5473054483307 -12.622106906794947, 76.84576248579867 -12.313925511830798, 77.05156644735568 -12.101416024703706 M76.24884841086275 -12.930288301759097 C76.4870873316587 -12.684287056258121, 76.72532625245465 -12.438285810757145, 77.05156644735568 -12.101416024703706 M77.05156644735568 -12.101416024703706 C77.2211551147971 -11.902207526058469, 77.39074378223852 -11.702999027413231, 77.79952918442453 -11.222816433457204 M77.05156644735568 -12.101416024703706 C77.34328438292404 -11.758747538364336, 77.6350023184924 -11.416079052024966, 77.79952918442453 -11.222816433457204 M77.79952918442453 -11.222816433457204 C77.98618792634342 -10.9727107242471, 78.17284666826232 -10.722605015036995, 78.4896630827452 -10.298099882199057 M77.79952918442453 -11.222816433457204 C78.02898823306258 -10.915362212431594, 78.25844728170061 -10.607907991405986, 78.4896630827452 -10.298099882199057 M78.4896630827452 -10.298099882199057 C78.7360978223943 -9.919509945104792, 78.9825325620434 -9.540920008010525, 79.11913223409623 -9.331066229589453 M78.4896630827452 -10.298099882199057 C78.67130010259201 -10.019056643345186, 78.85293712243883 -9.740013404491314, 79.11913223409623 -9.331066229589453 M79.11913223409623 -9.331066229589453 C79.2706641877554 -9.0620059015934, 79.42219614141459 -8.792945573597347, 79.685350014714 -8.325689224335035 M79.11913223409623 -9.331066229589453 C79.28946444844505 -9.02862413500613, 79.45979666279385 -8.726182040422804, 79.685350014714 -8.325689224335035 M79.685350014714 -8.325689224335035 C79.83004466221192 -8.02522769283612, 79.97473930970985 -7.724766161337205, 80.18598971428463 -7.286100176203093 M79.685350014714 -8.325689224335035 C79.79062164863295 -8.107090424050224, 79.89589328255188 -7.888491623765415, 80.18598971428463 -7.286100176203093 M80.18598971428463 -7.286100176203093 C80.32961859328738 -6.931334068190837, 80.47324747229011 -6.576567960178581, 80.61899409689568 -6.216570979583546 M80.18598971428463 -7.286100176203093 C80.29981629029595 -7.004946332768001, 80.41364286630726 -6.72379248933291, 80.61899409689568 -6.216570979583546 M80.61899409689568 -6.216570979583546 C80.73677141113583 -5.861844474358859, 80.85454872537599 -5.507117969134172, 80.9825838546599 -5.121496559358589 M80.61899409689568 -6.216570979583546 C80.73417404881606 -5.869667315832541, 80.84935400073644 -5.522763652081537, 80.9825838546599 -5.121496559358589 M80.9825838546599 -5.121496559358589 C81.06500229201171 -4.807199337359405, 81.14742072936353 -4.492902115360222, 81.27526491927283 -4.005376811213661 M80.9825838546599 -5.121496559358589 C81.06250883151019 -4.816707982924336, 81.14243380836048 -4.511919406490083, 81.27526491927283 -4.005376811213661 M81.27526491927283 -4.005376811213661 C81.35394080466155 -3.6013927678968227, 81.43261669005028 -3.1974087245799847, 81.4958346014601 -2.872798110600833 M81.27526491927283 -4.005376811213661 C81.35374054459074 -3.6024210610354928, 81.43221616990864 -3.1994653108573248, 81.4958346014601 -2.872798110600833 M81.4958346014601 -2.872798110600833 C81.53859542433474 -2.5411536124646847, 81.58135624720938 -2.209509114328536, 81.64338653308556 -1.728414466338275 M81.4958346014601 -2.872798110600833 C81.53978674128587 -2.5319139934438497, 81.58373888111164 -2.1910298762868665, 81.64338653308556 -1.728414466338275 M81.64338653308556 -1.728414466338275 C81.65835830827582 -1.4952169827504913, 81.67333008346608 -1.2620194991627076, 81.71731439161238 -0.576928396289793 M81.64338653308556 -1.728414466338275 C81.67242839468693 -1.2760640297281, 81.70147025628832 -0.8237135931179251, 81.71731439161238 -0.576928396289793 M81.71731439161238 -0.576928396289793 C81.71731439161238 -0.29755027104374315, 81.71731439161238 -0.01817214579769333, 81.71731439161238 0.5769283962897886 M81.71731439161238 -0.576928396289793 C81.71731439161238 -0.32828946215145266, 81.71731439161238 -0.07965052801311234, 81.71731439161238 0.5769283962897886 M81.71731439161238 0.5769283962897886 C81.69418188053857 0.9372359284912346, 81.67104936946475 1.2975434606926806, 81.64338653308556 1.7284144663382628 M81.71731439161238 0.5769283962897886 C81.69621911756299 0.9055043174077946, 81.67512384351359 1.2340802385258005, 81.64338653308556 1.7284144663382628 M81.64338653308556 1.7284144663382628 C81.60658893059029 2.013809404783048, 81.56979132809504 2.2992043432278333, 81.4958346014601 2.8727981106008205 M81.64338653308556 1.7284144663382628 C81.60574372953118 2.020364617293675, 81.56810092597681 2.312314768249087, 81.4958346014601 2.8727981106008205 M81.4958346014601 2.8727981106008205 C81.43024869410397 3.209567883288192, 81.36466278674781 3.5463376559755644, 81.27526491927283 4.005376811213657 M81.4958346014601 2.8727981106008205 C81.44756226182291 3.120666372275234, 81.39928992218572 3.3685346339496482, 81.27526491927283 4.005376811213657 M81.27526491927283 4.005376811213657 C81.20394514136353 4.277350034569093, 81.13262536345422 4.549323257924529, 80.9825838546599 5.121496559358577 M81.27526491927283 4.005376811213657 C81.2101149323291 4.253821947613012, 81.14496494538538 4.502267084012367, 80.9825838546599 5.121496559358577 M80.9825838546599 5.121496559358577 C80.90309597113082 5.360901399873807, 80.82360808760174 5.600306240389037, 80.61899409689569 6.216570979583534 M80.9825838546599 5.121496559358577 C80.89964909125091 5.3712828528863605, 80.81671432784194 5.621069146414144, 80.61899409689569 6.216570979583534 M80.61899409689569 6.216570979583534 C80.47394564301787 6.574843464982818, 80.32889718914006 6.933115950382102, 80.18598971428463 7.286100176203088 M80.61899409689569 6.216570979583534 C80.5222112074953 6.4556265875723655, 80.42542831809492 6.694682195561196, 80.18598971428463 7.286100176203088 M80.18598971428463 7.286100176203088 C80.02645919443958 7.617368714067633, 79.86692867459453 7.948637251932179, 79.685350014714 8.325689224335031 M80.18598971428463 7.286100176203088 C80.04941393516056 7.569702703807751, 79.9128381560365 7.853305231412415, 79.685350014714 8.325689224335031 M79.685350014714 8.325689224335031 C79.55888939338348 8.550232863033873, 79.43242877205294 8.774776501732715, 79.11913223409623 9.33106622958945 M79.685350014714 8.325689224335031 C79.47413290925587 8.70072658312711, 79.26291580379774 9.075763941919188, 79.11913223409623 9.33106622958945 M79.11913223409623 9.33106622958945 C78.87947321585398 9.699246839066838, 78.63981419761173 10.067427448544228, 78.48966308274521 10.298099882199049 M79.11913223409623 9.33106622958945 C78.98597484055941 9.535631743828727, 78.85281744702259 9.740197258068005, 78.48966308274521 10.298099882199049 M78.48966308274521 10.298099882199049 C78.22360096037238 10.65459888742066, 77.95753883799955 11.011097892642272, 77.79952918442454 11.2228164334572 M78.48966308274521 10.298099882199049 C78.34951273550051 10.485888579547657, 78.2093623882558 10.673677276896267, 77.79952918442454 11.2228164334572 M77.79952918442454 11.2228164334572 C77.57697188974176 11.48424489566042, 77.35441459505897 11.745673357863643, 77.05156644735568 12.101416024703695 M77.79952918442454 11.2228164334572 C77.51531895366023 11.556665942533227, 77.23110872289591 11.890515451609254, 77.05156644735568 12.101416024703695 M77.05156644735568 12.101416024703695 C76.78203172612666 12.379732753584824, 76.51249700489764 12.658049482465952, 76.24884841086276 12.930288301759093 M77.05156644735568 12.101416024703695 C76.78462499539873 12.377054990150041, 76.51768354344179 12.652693955596387, 76.24884841086276 12.930288301759093 M76.24884841086276 12.930288301759093 C76.04565467626135 13.114823475312484, 75.84246094165994 13.299358648865875, 75.3946736155402 13.706027250644409 M76.24884841086276 12.930288301759093 C75.98352344084783 13.171249419412637, 75.7181984708329 13.412210537066182, 75.3946736155402 13.706027250644409 M75.3946736155402 13.706027250644409 C75.05582299913428 13.976251600034535, 74.71697238272834 14.246475949424662, 74.49255204884189 14.425445193623217 M75.3946736155402 13.706027250644409 C75.18431370174903 13.87378368398046, 74.97395378795787 14.041540117316512, 74.49255204884189 14.425445193623217 M74.49255204884189 14.425445193623217 C74.14378312152432 14.668731299356425, 73.79501419420676 14.912017405089633, 73.54619072178988 15.085585888053126 M74.49255204884189 14.425445193623217 C74.15951773400923 14.657755514827354, 73.82648341917655 14.890065836031491, 73.54619072178988 15.085585888053126 M73.54619072178988 15.085585888053126 C73.32170631303218 15.221669655858863, 73.09722190427448 15.3577534236646, 72.55947843607088 15.68373667422101 M73.54619072178988 15.085585888053126 C73.22940828243647 15.277621264409419, 72.91262584308305 15.46965664076571, 72.55947843607088 15.68373667422101 M72.55947843607088 15.68373667422101 C72.18422845886683 15.879504346969279, 71.80897848166279 16.07527201971755, 71.53646980411605 16.217439622243543 M72.55947843607088 15.68373667422101 C72.27863542191935 15.830252294815326, 71.99779240776783 15.97676791540964, 71.53646980411605 16.217439622243543 M71.53646980411605 16.217439622243543 C71.2558491352462 16.341662068035852, 70.97522846637632 16.46588451382816, 70.48136858782874 16.68450163222839 M71.53646980411605 16.217439622243543 C71.1953979970291 16.368421993705255, 70.85432618994216 16.519404365166963, 70.48136858782874 16.68450163222839 M70.48136858782874 16.68450163222839 C70.10652050934483 16.822449190168122, 69.73167243086093 16.96039674810785, 69.39851042442518 17.08300344619203 M70.48136858782874 16.68450163222839 C70.10951552017652 16.821346998496484, 69.73766245252429 16.958192364764578, 69.39851042442518 17.08300344619203 M69.39851042442518 17.08300344619203 C69.04816267260195 17.18698481992029, 68.69781492077871 17.290966193648554, 68.29234501037115 17.411307534702527 M69.39851042442518 17.08300344619203 C69.03768966356003 17.190093154029984, 68.67686890269489 17.297182861867938, 68.29234501037115 17.411307534702527 M68.29234501037115 17.411307534702527 C67.85231651986435 17.511741166206452, 67.41228802935754 17.612174797710377, 67.1674178166247 17.668064825839174 M68.29234501037115 17.411307534702527 C67.85422339283562 17.511305934894267, 67.4161017753001 17.611304335086007, 67.1674178166247 17.668064825839174 M67.1674178166247 17.668064825839174 C66.8902688822493 17.712872116226904, 66.6131199478739 17.757679406614635, 66.02835141032112 17.85222024881843 M67.1674178166247 17.668064825839174 C66.76998579297582 17.732318553291353, 66.37255376932691 17.796572280743533, 66.02835141032112 17.85222024881843 M66.02835141032112 17.85222024881843 C65.77274023554723 17.87687875143145, 65.51712906077333 17.901537254044477, 64.87982645965283 17.963017069506055 M66.02835141032112 17.85222024881843 C65.65086137530723 17.888636258498032, 65.27337134029334 17.92505226817763, 64.87982645965283 17.963017069506055 M64.87982645965283 17.963017069506055 C64.4427814977829 17.977032250776812, 64.00573653591296 17.99104743204757, 63.7265625 18 M64.87982645965283 17.963017069506055 C64.50701710839648 17.974972339771465, 64.13420775714013 17.986927610036876, 63.7265625 18 M63.7265625 18 C63.7265625 18, 63.7265625 18, 63.7265625 18 M63.7265625 18 C63.7265625 18, 63.7265625 18, 63.7265625 18 M63.7265625 18 C22.720027936213697 18, -18.286506627572606 18, -63.7265625 18 M63.7265625 18 C15.537498258088753 18, -32.65156598382249 18, -63.7265625 18 M-63.7265625 18 C-64.1515118474102 17.986372701542283, -64.57646119482042 17.972745403084563, -64.87982645965282 17.963017069506055 M-63.7265625 18 C-64.14314203176315 17.986641105239226, -64.5597215635263 17.973282210478448, -64.87982645965282 17.963017069506055 M-64.87982645965282 17.963017069506055 C-65.33173129892242 17.9194223531568, -65.78363613819201 17.87582763680755, -66.02835141032111 17.85222024881843 M-64.87982645965282 17.963017069506055 C-65.1104346532936 17.940770574412458, -65.34104284693437 17.918524079318864, -66.02835141032111 17.85222024881843 M-66.02835141032111 17.85222024881843 C-66.4829895982133 17.778717872371825, -66.93762778610548 17.70521549592522, -67.1674178166247 17.668064825839174 M-66.02835141032111 17.85222024881843 C-66.4375938150896 17.78605711053771, -66.84683621985809 17.719893972256987, -67.1674178166247 17.668064825839174 M-67.1674178166247 17.668064825839174 C-67.56930981280303 17.576335600301842, -67.97120180898135 17.48460637476451, -68.29234501037112 17.41130753470253 M-67.1674178166247 17.668064825839174 C-67.53736770712398 17.583626177481364, -67.90731759762326 17.499187529123553, -68.29234501037112 17.41130753470253 M-68.29234501037112 17.41130753470253 C-68.73142331112055 17.280991399809135, -69.17050161186997 17.15067526491574, -69.39851042442517 17.083003446192038 M-68.29234501037112 17.41130753470253 C-68.61624219633637 17.315176550079066, -68.94013938230162 17.219045565455605, -69.39851042442517 17.083003446192038 M-69.39851042442517 17.083003446192038 C-69.74650121402874 16.954939618826327, -70.09449200363231 16.826875791460616, -70.48136858782874 16.68450163222839 M-69.39851042442517 17.083003446192038 C-69.67746380266418 16.980346024383323, -69.95641718090317 16.877688602574608, -70.48136858782874 16.68450163222839 M-70.48136858782874 16.68450163222839 C-70.79030575515515 16.547744312548453, -71.09924292248154 16.410986992868516, -71.53646980411604 16.217439622243546 M-70.48136858782874 16.68450163222839 C-70.83846447625892 16.526425875293516, -71.19556036468909 16.36835011835864, -71.53646980411604 16.217439622243546 M-71.53646980411604 16.217439622243546 C-71.7879098800564 16.086263495680512, -72.03934995599678 15.955087369117475, -72.55947843607088 15.683736674221013 M-71.53646980411604 16.217439622243546 C-71.898397060444 16.028622404442725, -72.26032431677194 15.839805186641904, -72.55947843607088 15.683736674221013 M-72.55947843607088 15.683736674221013 C-72.9055428574462 15.473950388283013, -73.25160727882152 15.264164102345013, -73.54619072178987 15.085585888053139 M-72.55947843607088 15.683736674221013 C-72.92660022868864 15.461185286088998, -73.29372202130641 15.238633897956984, -73.54619072178987 15.085585888053139 M-73.54619072178987 15.085585888053139 C-73.77962662710446 14.922751105783151, -74.01306253241906 14.759916323513165, -74.49255204884189 14.42544519362322 M-73.54619072178987 15.085585888053139 C-73.82444599357677 14.891487055931174, -74.10270126536366 14.697388223809208, -74.49255204884189 14.42544519362322 M-74.49255204884189 14.42544519362322 C-74.72640995240148 14.23894973875461, -74.96026785596109 14.052454283885998, -75.39467361554019 13.706027250644423 M-74.49255204884189 14.42544519362322 C-74.79125166833016 14.187240195812025, -75.08995128781842 13.94903519800083, -75.39467361554019 13.706027250644423 M-75.39467361554019 13.706027250644423 C-75.72582278452958 13.405286337095141, -76.05697195351897 13.10454542354586, -76.24884841086275 12.930288301759106 M-75.39467361554019 13.706027250644423 C-75.7275595078614 13.403709090916356, -76.06044540018263 13.10139093118829, -76.24884841086275 12.930288301759106 M-76.24884841086275 12.930288301759106 C-76.48191921044743 12.68962356571941, -76.7149900100321 12.448958829679716, -77.05156644735568 12.101416024703703 M-76.24884841086275 12.930288301759106 C-76.48774348411264 12.683609524978316, -76.72663855736253 12.436930748197526, -77.05156644735568 12.101416024703703 M-77.05156644735568 12.101416024703703 C-77.26846564945785 11.846633880000258, -77.48536485156002 11.591851735296814, -77.79952918442453 11.222816433457206 M-77.05156644735568 12.101416024703703 C-77.31272871592286 11.79463996349063, -77.57389098449003 11.487863902277557, -77.79952918442453 11.222816433457206 M-77.79952918442453 11.222816433457206 C-78.02855249660448 10.915946059589029, -78.25757580878444 10.609075685720853, -78.4896630827452 10.29809988219906 M-77.79952918442453 11.222816433457206 C-77.95992210921085 11.007904526339587, -78.12031503399717 10.792992619221966, -78.4896630827452 10.29809988219906 M-78.4896630827452 10.29809988219906 C-78.73147516999312 9.926611580548993, -78.97328725724103 9.555123278898929, -79.11913223409623 9.33106622958946 M-78.4896630827452 10.29809988219906 C-78.6590849690481 10.037822368691277, -78.828506855351 9.777544855183496, -79.11913223409623 9.33106622958946 M-79.11913223409623 9.33106622958946 C-79.2695222266663 9.064033569143229, -79.41991221923635 8.797000908696997, -79.685350014714 8.325689224335036 M-79.11913223409623 9.33106622958946 C-79.24684778560062 9.104294335291462, -79.37456333710502 8.877522440993461, -79.685350014714 8.325689224335036 M-79.685350014714 8.325689224335036 C-79.8154148822653 8.05560674392241, -79.94547974981661 7.785524263509785, -80.18598971428463 7.286100176203095 M-79.685350014714 8.325689224335036 C-79.80693458479539 8.07321626306801, -79.92851915487675 7.820743301800984, -80.18598971428463 7.286100176203095 M-80.18598971428463 7.286100176203095 C-80.29435439642495 7.018437316227904, -80.40271907856526 6.750774456252713, -80.61899409689568 6.2165709795835475 M-80.18598971428463 7.286100176203095 C-80.34250347618844 6.8995081583129565, -80.49901723809224 6.512916140422818, -80.61899409689568 6.2165709795835475 M-80.61899409689568 6.2165709795835475 C-80.73409540831265 5.869904168499105, -80.84919671972965 5.523237357414664, -80.9825838546599 5.121496559358584 M-80.61899409689568 6.2165709795835475 C-80.71961892868107 5.913505018635641, -80.82024376046647 5.610439057687735, -80.9825838546599 5.121496559358584 M-80.9825838546599 5.121496559358584 C-81.09211883141734 4.70379222022318, -81.2016538081748 4.286087881087776, -81.27526491927281 4.005376811213663 M-80.9825838546599 5.121496559358584 C-81.07172560378338 4.781560435672252, -81.16086735290686 4.44162431198592, -81.27526491927281 4.005376811213663 M-81.27526491927281 4.005376811213663 C-81.35689612610412 3.5862178168966308, -81.43852733293542 3.167058822579598, -81.4958346014601 2.8727981106008347 M-81.27526491927281 4.005376811213663 C-81.32535434623799 3.74817819015163, -81.37544377320317 3.4909795690895966, -81.4958346014601 2.8727981106008347 M-81.4958346014601 2.8727981106008347 C-81.55333805247597 2.4268126998626065, -81.61084150349181 1.9808272891243783, -81.64338653308556 1.7284144663382852 M-81.4958346014601 2.8727981106008347 C-81.54042358818783 2.5269747346319154, -81.58501257491555 2.181151358662996, -81.64338653308556 1.7284144663382852 M-81.64338653308556 1.7284144663382852 C-81.67117445343699 1.2955951768590837, -81.69896237378843 0.8627758873798821, -81.71731439161238 0.5769283962897952 M-81.64338653308556 1.7284144663382852 C-81.65889474728367 1.4868615121975821, -81.67440296148177 1.245308558056879, -81.71731439161238 0.5769283962897952 M-81.71731439161238 0.5769283962897952 C-81.71731439161238 0.1814599753031344, -81.71731439161238 -0.2140084456835264, -81.71731439161238 -0.5769283962897864 M-81.71731439161238 0.5769283962897952 C-81.71731439161238 0.27459659516189666, -81.71731439161238 -0.027735205966001875, -81.71731439161238 -0.5769283962897864 M-81.71731439161238 -0.5769283962897864 C-81.69248269189356 -0.9637021631976259, -81.66765099217474 -1.3504759301054654, -81.64338653308556 -1.7284144663382603 M-81.71731439161238 -0.5769283962897864 C-81.70007758168406 -0.8454056242258963, -81.68284077175574 -1.113882852162006, -81.64338653308556 -1.7284144663382603 M-81.64338653308556 -1.7284144663382603 C-81.60177340178217 -2.051157695285194, -81.56016027047878 -2.373900924232128, -81.4958346014601 -2.8727981106008262 M-81.64338653308556 -1.7284144663382603 C-81.58915559254125 -2.149018932089554, -81.53492465199692 -2.5696233978408474, -81.4958346014601 -2.8727981106008262 M-81.4958346014601 -2.8727981106008262 C-81.42293629013494 -3.2471155321919865, -81.35003797880978 -3.621432953783147, -81.27526491927283 -4.005376811213655 M-81.4958346014601 -2.8727981106008262 C-81.4393673708455 -3.162745405453378, -81.3829001402309 -3.4526927003059296, -81.27526491927283 -4.005376811213655 M-81.27526491927283 -4.005376811213655 C-81.21044969900316 -4.252545337196047, -81.1456344787335 -4.499713863178438, -80.9825838546599 -5.121496559358575 M-81.27526491927283 -4.005376811213655 C-81.17836773655797 -4.374887764410016, -81.08147055384313 -4.744398717606378, -80.9825838546599 -5.121496559358575 M-80.9825838546599 -5.121496559358575 C-80.878405645389 -5.43526472713898, -80.77422743611811 -5.7490328949193845, -80.61899409689569 -6.2165709795835244 M-80.9825838546599 -5.121496559358575 C-80.86545277348787 -5.474276713545309, -80.74832169231586 -5.827056867732043, -80.61899409689569 -6.2165709795835244 M-80.61899409689569 -6.2165709795835244 C-80.52118442415136 -6.458162762283424, -80.42337475140701 -6.699754544983322, -80.18598971428463 -7.286100176203086 M-80.61899409689569 -6.2165709795835244 C-80.50999892279027 -6.4857911669022394, -80.40100374868486 -6.7550113542209544, -80.18598971428463 -7.286100176203086 M-80.18598971428463 -7.286100176203086 C-79.98613714321249 -7.701098316194374, -79.78628457214035 -8.116096456185662, -79.685350014714 -8.32568922433503 M-80.18598971428463 -7.286100176203086 C-80.02818048076375 -7.613794426185864, -79.87037124724287 -7.941488676168642, -79.685350014714 -8.32568922433503 M-79.685350014714 -8.32568922433503 C-79.51472466623592 -8.628651808247938, -79.34409931775782 -8.931614392160846, -79.11913223409623 -9.331066229589455 M-79.685350014714 -8.32568922433503 C-79.5300943016437 -8.60136146423706, -79.3748385885734 -8.877033704139091, -79.11913223409623 -9.331066229589455 M-79.11913223409623 -9.331066229589455 C-78.92465406572319 -9.629836920910806, -78.73017589735014 -9.928607612232158, -78.48966308274521 -10.298099882199054 M-79.11913223409623 -9.331066229589455 C-78.93851582462776 -9.608541536829934, -78.75789941515929 -9.886016844070413, -78.48966308274521 -10.298099882199054 M-78.48966308274521 -10.298099882199054 C-78.33625250055454 -10.503656086343003, -78.18284191836386 -10.709212290486953, -77.79952918442454 -11.2228164334572 M-78.48966308274521 -10.298099882199054 C-78.22454607261761 -10.653332523113551, -77.95942906249 -11.008565164028047, -77.79952918442454 -11.2228164334572 M-77.79952918442454 -11.2228164334572 C-77.50177290927776 -11.572577897056638, -77.20401663413097 -11.922339360656073, -77.05156644735568 -12.101416024703695 M-77.79952918442454 -11.2228164334572 C-77.64092763322675 -11.409118840178051, -77.48232608202895 -11.595421246898901, -77.05156644735568 -12.101416024703695 M-77.05156644735568 -12.101416024703695 C-76.74662842574794 -12.416289567890859, -76.44169040414022 -12.731163111078022, -76.24884841086276 -12.930288301759086 M-77.05156644735568 -12.101416024703695 C-76.8736064061654 -12.285174378023774, -76.6956463649751 -12.468932731343852, -76.24884841086276 -12.930288301759086 M-76.24884841086276 -12.930288301759086 C-76.0133618132203 -13.14415099910402, -75.77787521557785 -13.358013696448957, -75.3946736155402 -13.706027250644407 M-76.24884841086276 -12.930288301759086 C-75.91655792245625 -13.232065731405342, -75.58426743404974 -13.533843161051598, -75.3946736155402 -13.706027250644407 M-75.3946736155402 -13.706027250644407 C-75.20441880282166 -13.857750400894252, -75.01416399010311 -14.009473551144096, -74.4925520488419 -14.425445193623215 M-75.3946736155402 -13.706027250644407 C-75.08282197128808 -13.954720638214695, -74.77097032703597 -14.203414025784982, -74.4925520488419 -14.425445193623215 M-74.4925520488419 -14.425445193623215 C-74.27189166999985 -14.57936832166959, -74.05123129115778 -14.733291449715963, -73.54619072178988 -15.085585888053124 M-74.4925520488419 -14.425445193623215 C-74.15726073837773 -14.65932989727612, -73.82196942791356 -14.893214600929024, -73.54619072178988 -15.085585888053124 M-73.54619072178988 -15.085585888053124 C-73.21979854311982 -15.283446744856262, -72.89340636444977 -15.481307601659397, -72.55947843607089 -15.683736674221008 M-73.54619072178988 -15.085585888053124 C-73.32123073263413 -15.221957955490982, -73.09627074347837 -15.35833002292884, -72.55947843607089 -15.683736674221008 M-72.55947843607089 -15.683736674221008 C-72.33003947933591 -15.803434830986983, -72.10060052260091 -15.923132987752961, -71.53646980411605 -16.217439622243543 M-72.55947843607089 -15.683736674221008 C-72.20057819049353 -15.870974702452132, -71.84167794491619 -16.05821273068326, -71.53646980411605 -16.217439622243543 M-71.53646980411605 -16.217439622243543 C-71.12521402071793 -16.399490358084524, -70.7139582373198 -16.581541093925505, -70.48136858782874 -16.684501632228386 M-71.53646980411605 -16.217439622243543 C-71.31437947450875 -16.31575242308514, -71.09228914490144 -16.414065223926738, -70.48136858782874 -16.684501632228386 M-70.48136858782874 -16.684501632228386 C-70.1467086179392 -16.807659594710586, -69.81204864804967 -16.930817557192785, -69.39851042442518 -17.08300344619203 M-70.48136858782874 -16.684501632228386 C-70.05331643634581 -16.842028780844817, -69.6252642848629 -16.999555929461245, -69.39851042442518 -17.08300344619203 M-69.39851042442518 -17.08300344619203 C-68.98513907737149 -17.20568989216709, -68.57176773031777 -17.328376338142153, -68.29234501037115 -17.411307534702523 M-69.39851042442518 -17.08300344619203 C-69.12974448869345 -17.162771765136025, -68.86097855296171 -17.24254008408002, -68.29234501037115 -17.411307534702523 M-68.29234501037115 -17.411307534702523 C-67.96127356866572 -17.486872430828726, -67.6302021269603 -17.56243732695493, -67.1674178166247 -17.668064825839174 M-68.29234501037115 -17.411307534702523 C-67.85054500366692 -17.51214550321829, -67.4087449969627 -17.612983471734054, -67.1674178166247 -17.668064825839174 M-67.1674178166247 -17.668064825839174 C-66.73714297879813 -17.73762832478777, -66.30686814097156 -17.80719182373637, -66.02835141032112 -17.85222024881843 M-67.1674178166247 -17.668064825839174 C-66.92526783957857 -17.707213756226878, -66.68311786253243 -17.746362686614578, -66.02835141032112 -17.85222024881843 M-66.02835141032112 -17.85222024881843 C-65.79304140902924 -17.874920321641376, -65.55773140773736 -17.897620394464322, -64.87982645965283 -17.963017069506055 M-66.02835141032112 -17.85222024881843 C-65.61337658147295 -17.892252371477163, -65.19840175262478 -17.932284494135896, -64.87982645965283 -17.963017069506055 M-64.87982645965283 -17.963017069506055 C-64.44515209411097 -17.976956230366657, -64.01047772856911 -17.990895391227255, -63.72656250000001 -18 M-64.87982645965283 -17.963017069506055 C-64.45780653990171 -17.976550426920532, -64.03578662015057 -17.99008378433501, -63.72656250000001 -18 M-63.72656250000001 -18 C-63.72656250000001 -18, -63.7265625 -18, -63.7265625 -18 M-63.72656250000001 -18 C-63.72656250000001 -18, -63.7265625 -18, -63.7265625 -18" stroke="#8B5CF6" stroke-width="2" fill="none" stroke-dasharray="0 0" style="fill:#141019 !important;stroke:#8B5CF6 !important;stroke-width:2px !important"/></g><g class="label" style="color:#E6E9EC !important" transform="translate(-69.7265625, -10.5)"><rect/><foreignObject width="139.453125" height="21"><div style="color: rgb(230, 233, 236) !important; display: table-cell; white-space: nowrap; line-height: 1.5; max-width: 200px; text-align: center;" xmlns="http://www.w3.org/1999/xhtml"><span style="color:#E6E9EC !important" class="nodeLabel"><p>👤 <b>Operator Browser</b></p></span></div></foreignObject></g></g></g></g></g><defs><filter id="my-svg-drop-shadow" height="130%" width="130%"><feDropShadow dx="4" dy="4" stdDeviation="0" flood-opacity="0.06" flood-color="#FFFFFF"/></filter></defs><defs><filter id="my-svg-drop-shadow-small" height="150%" width="150%"><feDropShadow dx="2" dy="2" stdDeviation="0" flood-opacity="0.06" flood-color="#FFFFFF"/></filter></defs><linearGradient id="my-svg-gradient" gradientUnits="objectBoundingBox" x1="0%" y1="0%" x2="100%" y2="0%"><stop offset="0%" stop-color="#cccccc" stop-opacity="1"/><stop offset="100%" stop-color="hsl(180, 0%, 18.3529411765%)" stop-opacity="1"/></linearGradient></svg>